<svg xmlns="http://www.w3.org/2000/svg" viewBox="0 0 69.4 52" style="enable-background:new 0 0 69.4 52" xml:space="preserve"><switch><g><path d="M24.1 31.4s.1 0 0 0c.2-.1.4-.1.5-.1H26.5c.1 0 .1.1.1.1v.1c0 .2.1.4.1.5 0 .2.1.3.1.5v.2c0 .2.1.3.1.5.1.2.1.4.1.6.1.3.1.5.2.8.1.3.1.6.2.8 0 .2.1.3.1.5 0 .1 0 .2.1.3.1.3.1.5.2.8 0 .2.1.4.1.7 0 .2.1.3.1.5v.1c.1.2.1.4.1.6 0 .1 0 .2.1.3 0 .2.1.3.1.5 0 .1 0 .2.1.3 0 .1.1.2.1.3v.1s0 .1.1.1c0 .2 0 .3.1.5 0 .1 0 .3.1.4 0 .1 0 .3.1.4V42.1c0 .1.1.2.1.3 0 0 .1.1.1 0l.1-.1v-8.6c0-.2 0-.3-.1-.5 0-.1 0-.1-.1-.2.1.1 0 0-.1 0s-.1-.1-.2-.1-.1 0-.2-.1h-.1c-.1 0-.1-.1-.1-.1v-.2c0-.4 0-.5-.1-.8v-.1s0-.1.1-.1h3.1c.1 0 .1.1.1.1v1.3l-.1.1H30.8c-.2.1-.3.3-.3.5V49.4c0 .1 0 .1-.1.2h-1.8l-.1-.1V49c0-.2-.1-.4-.1-.6 0-.1-.1-.3-.1-.4 0-.2-.1-.4-.1-.5 0-.2-.1-.3-.1-.5v-.1c-.1-.2-.1-.3-.1-.4v-.1c0-.1-.1-.2-.1-.3v-.2c0-.1 0-.2-.1-.3 0-.1 0-.2-.1-.3 0-.2-.1-.3-.1-.5s-.1-.4-.1-.5c0-.2-.1-.4-.1-.5 0-.1-.1-.3-.1-.4 0-.2-.1-.4-.1-.6-.1-.3-.1-.5-.2-.8 0-.1-.1-.2-.1-.4 0-.1 0-.3-.1-.4 0-.1 0-.2-.1-.3 0-.2-.1-.4-.1-.6v-.2c0-.2-.1-.4-.1-.6l-.1-.1v-.2c0-.2-.1-.3-.1-.5s-.1-.5-.1-.7c0-.2-.1-.5-.1-.7 0-.1-.1-.3-.1-.4 0-.1 0-.2-.1-.3 0-.1-.1-.3-.1-.4V36s0-.1-.1-.1h-.1v11.8l.1.1c0 .1.1.2.1.3 0 0 0 .1.1.1 0 .1.1.1.2.1h.4s.1 0 .1.1v1.1c0 .1 0 .1-.1.1h-3.1s-.1 0-.1-.1v-1.1s0-.1.1-.1H23.7c.1 0 .3-.1.4-.1.1 0 .1-.1.2-.2s.1-.2.1-.2V33.4c0-.1-.1-.1-.1-.1l-.2-.2-.1-.1c-.1-.1-.2-.1-.4-.1H23.3v-1.1s0-.1.1-.1h.5c.1-.3.1-.3.2-.3zM52.8 49.2c0 .1 0 .1-.1.2 0 0 0 .1-.1.1H52.3v-.1h.1c.1 0 .1-.1.1-.2s0-.1-.1-.1c0 0 0-.1-.1-.1 0 0 0-.1-.1-.1l-.1-.1h-.5s-.1 0-.1-.1c0 0-.1 0-.1.1s0 .1.1.2c0 0 .1 0 .1.1v.1s0 .1-.1.1-.1-.1-.2-.2l-.1-.1v-.1l-.1-.1H51v.2h-.1l-.1.1v.1h.1c.1-.2.1-.2.2-.2h.1l.1.1v.1s-.1 0-.1.1v.1h.2v-.1.2c0 .1 0 .1-.1.2h-.5c-.1.1-.3.1-.4.1H48.6c-.1 0-.1-.1-.1-.1v-1.1l.1-.1s0-.1.1-.1.3-.1.4-.1h.1s0 .1.1.1h.1v-.1l-.1-.1v-.1c0-.1.1-.1.1-.2s.1-.1.1-.2c0-.2.1-.4.1-.6V33.4c0-.3-.1-.5-.4-.6h-.1c-.1 0-.1 0-.2-.1h-.2c-.1 0-.1-.1-.1-.1V31.4l.1-.1H53c.2 0 .3.1.5.1.1 0 .3.1.4.1.1.1.3.1.4.2.1 0 .2.1.2.1l.3.3v.1l.1.1.2.2v.1c0 .1.1.1.1.2 0 0 0 .1.1.1v.1c0 .1.1.2.1.3 0 .1.1.2.1.3 0 .1.1.3.1.4V34.3c0 .2 0 .4.1.6V36.8c0 .2 0 .4-.1.6 0 .1 0 .2-.1.3 0 .1 0 .2-.1.3v.1c0 .1-.1.2-.1.3 0 0 0 .1-.1.1 0 0 0 .1-.1.1 0 0 0 .1-.1.1-.1.2-.2.3-.3.4-.1.1-.2.3-.3.4l-.3.3c-.1.1-.2.2-.3.2l-.1.1v.2l.1.1s.1 0 .1.1c.1 0 .2.1.3.1.1 0 .2.1.3.2 0 .1.1.1.1.2.3.5.5 1 .6 1.6V45.5s0 .1.1.1v1.2h-.1v.6c0-.1.1-.1.1-.1v.1s0 .1.1.1v.1c0 .1.1.2.1.2l.1.1h.1c.1 0 .2 0 .3-.1v-.1c0-.1.1-.1.1-.2s.1-.3.1-.4v-1.6h.8c.1 0 .1.1.1.1V46.2c0 .3 0 .7-.1 1V47.9c0 .1-.1.2-.1.3v.1c0 .1-.1.2-.1.3 0 0 0 .1-.1.1s-.1.1-.2.1c-.1.1-.3.2-.4.2H54.6c-.1 0-.1 0-.2-.1s-.2-.1-.3-.2c-.1 0-.1-.1-.2-.2s-.1-.1-.1-.2-.1-.1-.1-.2c-.1-.1-.1-.3-.1-.4V43c0-.2 0-.4-.1-.6 0-.1-.1-.2-.1-.4 0-.1-.1-.2-.1-.3-.1-.1-.1-.2-.2-.3 0-.1-.1-.2-.2-.3 0-.1-.1-.1-.1-.2-.1-.1-.2-.1-.2-.1-.1 0-.3-.1-.4-.1H52s-.1 0-.1-.1h-.5c-.1.1-.1.1-.1.2V46.9c0 .1 0 .1.1.1 0 0 .1.1.1.2v.1c0 .1.1.1.1.2l.1.1c.1.1.2.1.3.1h.1c.1 0 .1.1.2.2V48.2s0 .1.1.1c.4.7.4.8.4.9zm1-10.2v-.2c.1-.3.1-.5.2-.8.1-.2.1-.4.1-.5V35.2c0-.2 0-.3-.1-.5 0-.1 0-.1-.1-.2v-.2c0-.1 0-.3-.1-.4-.1-.2-.1-.4-.2-.6 0 0 0-.1-.1-.1-.2-.2-.4-.4-.7-.5-.2-.1-.3-.1-.5-.1h-.1c-.1 0-.2.1-.2.1.1.2 0 .2 0 .3v.1s-.1 0-.1.1c0 0 0 .1-.1.1v6.4h.1l.1-.1h.6c.2 0 .4-.1.5-.1h.1s.1 0 .1-.1c.1-.1.2-.1.4-.2l.1-.1c-.1 0 0 0 0-.1zm-3.5-2.7h.5s0 .1-.1.1h-.2v.1l.1.1.1.1c0 .1.1.2.1.3v.1l-.1.1v-.4c0-.1-.1-.1-.1-.1l-.1.1v.2s-.1.1-.1.2V37.8c0 .1 0 .1.1.2h.2s.1-.1 0-.2l-.1-.1V37.4h.4v-.1h.1V37l.1-.1V36.6s.1-.1.1-.2v-.1c0-.1.1-.1.1-.2V35.8s0-.1-.1-.1l-.1.1v.1-.2l.1-.1c.1-.1.1-.1.1-.2v-.1h-.2l-.1.1v.1s-.1.1-.1 0h-.2V35.8h.2v.2s0 .1-.1.1h-.2s-.1 0-.1-.1l-.1-.1v-.5c0-.1-.1-.1-.1-.1h-.1c0 .1 0 .1-.1.2v.1l.1.1v.1H50c-.1 0-.1.1 0 .2h.1l.1-.1h.1v.2s0 .1-.1.1h-.1c.1 0 .1 0 .2.1-.1-.1-.1-.1 0 0-.1 0-.1 0 0 0zm.9 11.4v-.2h.1c0-.1 0-.1-.1-.2l-.1-.1-.1.1h-.4c-.1 0-.1.1-.1.1v.5s0 .1.1.1h.1l.1-.1h.2l.1-.1.1-.1zm.2-12.8c0-.1-.1-.1-.1-.2V34.4h-.2c0 .1-.1.1-.1.2V35.3h.1c.2-.2.3-.3.3-.4zm.2-2h.1v-.1s-.1 0-.1-.1v-.1h-.1l-.1.1v.1c0 .1-.1.1-.1.1h-.1.1c.1.1.2.1.3 0-.1 0 0 0 0 0zm-.4 1.4h.1v-.1s0-.1-.1-.1-.2 0-.2.1l-.1.1H51.2zm-.3 12.3c0 .1 0 .1 0 0 0 .1 0 .2.1.2 0 0 .1 0 .1-.1v-.2c-.2 0-.3 0-.2.1zm4.6-1.8V44.5h-.1v.3s0 .1.1.1v-.1zm-6 4.3v.1c0-.1 0-.1.1-.2v-.1s-.1-.1-.1 0c.1.1.1.1 0 .2zm1-7h-.2v.1h.1c.1.1.1 0 .1-.1 0 .1 0 0 0 0zm-.3 2.4v.2h.1v-.1c.1-.1.1-.1-.1-.1.1 0 .1 0 0 0 .1 0 .1 0 0 0zm5.1 3v-.2h-.1s-.1 0-.1.1v.1h.2zm0 .5c.1 0 .1 0 0 0 .1 0 .1-.1 0 0 .1-.1.1-.1 0-.2h-.1c.1 0 0 .1.1.2zm-4 .1s0 .1 0 0c-.1.1-.1.1 0 0-.1.1 0 .1 0 .1l.1.1h.1v-.1c-.1 0-.1 0-.2-.1 0 .1 0 0 0 0zm-.1-1.5c.1 0 .1 0 .1-.1s0-.1-.1-.1v.2zm-1 .8s-.1 0 0 0c-.1 0-.1 0 0 0v.1h.1v-.1h-.1zm.2-7.2s-.1 0 0 0c-.1.1-.1.1-.1.2v.1h.1c0-.1.1-.2 0-.3.1.1.1 0 0 0zm-.2-.1h-.1v.2c.1-.1.1-.1.1-.2 0 .1 0 0 0 0zm.4-5.1h-.1l.1.1h.1l-.1-.1c.1 0 .1 0 0 0zm.2-.1c.1 0 .1 0 0 0 .1 0 .1 0 .1-.1v-.1h-.1v.2zm.9 13.4s0 .1 0 0v.1h.1v-.1h-.1zm-1.5-6.4c0-.1 0-.1-.1-.1 0 0-.1 0 0 .1h.1c-.1 0-.1 0 0 0zm3.7-2.1v-.1h-.2c.1 0 .1 0 .2.1zm-1.7.6c-.1 0-.1 0 0 0l-.1.1h.1v-.1zm-2.3 7.9h-.1v.1l.1-.1c-.1.1 0 .1 0 0 0 .1 0 .1 0 0zm.6-8.9c.1-.1 0-.1 0-.2l-.1.1.1.1zm.9 9.1h.1v-.1c.1 0 0 0-.1.1.1-.1.1-.1 0 0 .1-.1.1-.1 0 0zm-.2-2.3s-.1 0 0 0h-.1c0 .1 0 .1.1 0 0 .1 0 .1 0 0zm-1.4 2.5c0-.1 0-.1 0 0-.1-.1-.1-.1 0 0l-.1-.1c-.1.1 0 .1.1.1-.1 0 0 0 0 0zm5.4-2.6c-.1 0-.1 0 0 0-.1 0-.1 0 0 0-.1-.1-.1 0-.1 0v.1l.1-.1c-.1.1-.1.1 0 0 0 .1-.1 0 0 0zm-3.7-5.7c-.1 0-.1 0 0 0-.1 0-.1.1 0 0v.1-.1c0 .1 0 0 0 0zm3.2-5.2c.1-.1.1-.1 0 0 0-.1 0-.1 0 0 0-.1 0-.1 0 0 0-.1 0 0 0 0zm-4.5-.2c0 .1 0 .1 0 0v.1-.1zm.7-1.1c0-.1 0-.1 0 0-.1-.1-.1-.1 0 0-.1 0-.1 0 0 0-.1 0 0 0 0 0zm4.9 15zM3.4 48.1v-.2c0-.1 0-.3.1-.4V33.6c0-.1-.1-.2-.1-.2l-.1-.1c-.2-.2-.4-.3-.5-.3-.1 0-.1 0-.2-.1-.1 0-.1-.1-.1-.1v-.6l.1-.1H2.9v-.4l.1-.1h.1l.1-.1c0-.1 0-.1-.1-.1H2.8v-.1H5h-.7s-.1 0-.1.1c-.1 0-.2 0-.2-.1h-.4s-.1 0-.1.1v.1h.4s.1 0 .1.1v.1h.1l.1-.1.1-.1h.2l.1.1h.1c.2 0 .2 0 .3.1v.3H5.3v.1h.2l.1.1v.1h.1l.1-.1s0-.1.1-.1.2-.1.2-.1h.1l.1.1.1.1h.1c.1 0 .1 0 .1-.1V32s0-.1.1-.1h.2c0 .1.1.1.1.2l.1.1h.1V32s.1 0 .1.1v.2h.1s.1 0 .1-.1v-.1h.2v.2h.6l.2.2c0 .1.1.1.1.2.1.1.1.2.1.3.3-.2.4-.1.4 0 .1.1.2.3.3.5 0 .1.1.2.1.3V34.1s.1.1.1.2v3c0 .2 0 .5-.1.7 0 .1 0 .2-.1.3 0 .1-.1.2-.1.3 0 0 0 .1-.1.1v.1s0 .1-.1.1c0 .1-.1.3-.2.4-.1.2-.2.4-.4.6l-.2.2-.2.2c-.1.1-.3.2-.4.3h-.1s-.1.1 0 .2c.1 0 .1.1.2.1s.1.1.2.1c.5 0 .6 0 .7.1.1.1.2.2.3.4.2.3.3.6.5 1 .1.2.1.4.1.6v.2c0 .1 0 .3.1.4V46.5c0 .2 0 .4-.1.6 0 .2-.1.4-.2.6 0 .1-.1.1-.1.2v.1c-.1.1-.1.2-.1.2-.1.2-.2.3-.3.5-.1.2-.3.3-.5.5-.1.1-.3.2-.4.3-.1.1-.3.1-.4.2H2.8s-.1 0-.1-.1v-.9c0-.1 0-.1.1-.2H3.1c0-.2.1-.3.3-.4zM7 41.6c-.2-.1-.3-.1-.4-.1-.2 0-.4-.1-.5-.1h-.6V47.4c0 .2.1.4.2.5 0 0 0 .1.1.1l.2.2c.2.1.3.2.5.2h.3c.1 0 .3-.1.4-.1h.1l.1-.1.2-.2.2-.2c0-.1.1-.2.1-.3 0-.1 0-.2.1-.3.1-.3.1-.5.1-.8v-2.6c0-.2 0-.3-.1-.5 0-.2-.1-.4-.1-.5-.1-.2-.1-.5-.2-.7V42s0-.1-.1-.1l-.1-.1c-.2 0-.3-.1-.5-.2.1 0 0 0 0 0zm-1.6-7.4V39.6s0 .1.1.1h.8c.2 0 .4-.1.6-.2.1 0 .1-.1.2-.1s.1-.1.2-.1c.1-.1.2-.2.2-.3v-.1c0-.1.1-.2.1-.3V34.4c0-.2-.1-.5-.2-.7-.1-.1-.1-.3-.2-.4l-.3-.3c.1 0 .1 0 0 0s-.3-.1-.4-.1H6c-.2.1-.4.2-.4.5V34c-.1 0-.1.1-.2.2 0-.1 0 0 0 0zm-.6.1c0 .1 0 .1 0 0v.4h-.1v.1c.1 0 .1.1.2 0 0 0 .1 0 .1-.1l.2-.2v-.1c-.1-.1-.1-.1-.1-.2l-.1-.1-.2.2c0-.1 0 0 0 0zm4.7.1c0-.1 0-.1-.1-.1v-.1h-.1V34.5c-.1 0-.1 0-.2.1.1 0 .1 0 .2.1h.2V34.4c-.1.1-.1.1 0 0-.1 0-.1 0 0 0zm-5.2 4.3v.1c0 .1.1.2.1.4 0 0 0 .1.1.1h.1c.1 0 .1-.1.2-.1v-.1s-.1 0-.1-.1c-.1 0-.1-.1-.1-.2v-.1c-.1-.1-.2-.1-.3 0 0-.1 0-.1 0 0 0-.1 0 0 0 0zm.4 2.1c-.1-.1-.2 0-.2-.1 0 0-.1 0-.2-.1 0 .1 0 .1.1.1h.1c0 .2.1.1.2.1zm4.1-3.1c-.1 0-.1 0 0 0v.3h.1c.1 0 .1 0 .1-.1v-.1l-.1-.1h-.1zm-4.7-3.8c0 .1 0 .1 0 0 .1.1.1.1 0 0 .1.1.1.1 0 0 .1.1.2 0 .2 0v-.1h-.1c-.1 0-.1.1-.1.1zM3.5 32s0 .1 0 0c-.1.1 0 .1 0 .2h.2V32h-.2zm.8 2.7h.1v-.1h-.1v.1c-.1-.1-.1 0 0 0zm4.2 3.5c0-.1 0-.1-.1-.2h-.1v.2s.1.1.2 0c-.1.1 0 0 0 0zm-4.1-6.1h.1V32h-.2l.1.1c-.1 0-.1 0 0 0zM4 34.8c-.1-.1-.1-.1-.2-.1v.1c0 .1.1.1.2 0 0 .1 0 .1 0 0 0 .1 0 0 0 0zm.2 5.3s-.1.1 0 0c-.1.1 0 .2 0 .2.1 0 .1 0 0-.2.1.1 0 0 0 0zm.2-5.7h.1c0-.1-.1-.1-.1 0 0-.1 0-.1 0 0zm4.7-.6c0-.1 0-.1 0 0 0-.1-.1-.1 0 0H9v.1l.1-.1zm-4.7 3.8c.1.1.1 0 .1 0v-.1s-.1 0-.1.1c0-.1 0 0 0 0zm.5-4.9s-.1 0 0 0c-.1 0-.1 0 0 0-.1.1-.1.1 0 .1v-.1zm-.4 15.6s-.1 0 0 0c-.1-.1-.1 0-.1 0-.1.1 0 .1.1 0-.1.1 0 .1 0 0zm.9-15.5c0 .1 0 .1 0 0 0 .1 0 .1 0 0zm-.2 8.3c-.1 0-.1 0 0 0-.1 0-.1 0 0 0-.1.1-.1.1 0 0 0 .1 0 0 0 0zM35.4 32.2s0 .1 0 0c.1.1.2.1.2.1h.1s.1.1.2.1c0 0 .1 0 .1.1h.1V32.2c0-.1.1-.1.1-.1h.1l.1.1H36.7v-.1h.1l.1-.1c.1 0 .1-.1.1-.1v-.2s.1-.1.1 0H37.8c.1 0 .2 0 .3.1h.4l.3.3h.1s0 .1.1.1c.1.1.1.2.2.3l.1.1s0 .1.1.1v.2c.1.2.1.4.2.6 0 .1.1.2.1.3.1.2.1.3.1.5v.1c0 .1.1.2.1.4v10.9c0 .2 0 .3-.1.5 0 .2-.1.4-.1.5-.1.2-.1.5-.2.7 0 .1-.1.2-.1.3 0 .1 0 .1-.1.1 0 0 0 .1-.1.1-.1.3-.3.5-.5.7l-.1.1c0 .1-.1.1-.2.1l-.1.1s-.1 0-.1.1c-.1 0-.1.1-.1.1-.1 0-.1.1-.2.1-.2 0-.3.1-.5.1H32.8s0-.1-.1-.1V48h.5c.1 0 .2-.1.2-.2v-.1c.1-.1.1-.2.1-.3V33.3c0-.1 0-.2-.1-.3-.1-.1-.2-.2-.3-.2H33c-.1 0-.1 0-.1-.1 0 0-.1 0-.1-.1v-.9h.2c0 .1.1.1.1.1h.1s.1 0 .1-.1l.1-.1h.9V31.9h.1c.1-.1.1-.1.2-.1h.1l.1-.1.1.1.1.1v.1h-.4v.1s0 .1.1.1h.2c.3.1.4.1.5 0-.1.1-.1 0 0 0zm2 15.8.1-.1c.1 0 .1-.1.1-.1.2-.2.2-.5.3-.7V47c0-.2 0-.3.1-.5 0-.2 0-.4.1-.6V34.1c0-.2 0-.2-.1-.4v-.2s-.1-.1-.1-.2c0 0 0-.1-.1-.1l-.3-.3c-.1-.1-.2-.1-.3-.2-.2-.1-.3-.1-.5-.2h-.1s-.1 0-.1.1h-.2c-.1 0-.2.1-.2.2-.2.3-.3.6-.2 1v13.7c0 .1.1.2.1.3v.1c.1.1.3.2.4.3.1 0 .2.1.3.1h.2c.1 0 .3-.1.4-.2-.1 0 0 0 .1-.1zm-1-15.6c0-.1 0-.1-.1-.1h-.1s-.1 0-.1.1v.1h.1c.2.1.2 0 .2-.1 0 .1 0 .1 0 0zm-1 .5c-.1 0-.1.1-.1.1l.1.1h.1s.1 0 0-.1v-.1h-.1zm1.6-.7v-.1.1l-.1.1c-.1-.1 0-.1.1-.1-.1 0-.1 0 0 0zm-1.3.6.1.1v-.2l-.1.1c0-.1 0 0 0 0zm-.2 2.8c.1 0 .1 0 .1-.1v-.2h-.1c-.1.2-.1.2 0 .3zm4.3-.7c0-.1 0-.1 0 0-.1-.1-.1-.1 0 0-.1 0-.1 0 0 0zM16.3 46.3V43c0-.1 0-.1.1-.1h.9l.1.1c0 .1 0 .1.1.2V49.6s-.1 0-.1.1c-.1 0-.2.1-.3.1h-3.6l-.1.1h-1.6c-.1 0-.2 0-.3-.1h-.4l-.1-.1c-.1-.1-.1-.1-.1-.2s0-.2.1-.3V48.9c0-.1 0-.3.1-.4v-.1l.1-.1h.2c.1 0 .3-.1.4-.2.1-.1.1-.2.2-.3V33.4c-.1-.2-.2-.3-.3-.4h-.5s-.1 0-.1-.1v-1.3c0-.1.1-.1.2-.2H14.9c.1 0 .1.1.1.2v1.1c0 .1 0 .1-.1.1h-.4c-.1 0-.2 0-.3.1-.1 0-.1.1-.2.1 0 .1-.1.1-.1.2v14.4c0 .1.1.3.2.4.1.1.3.2.4.3h.5c.2-.1.3-.1.5-.2s.3-.3.4-.5c0 0 0-.1.1-.1.1-.2.2-.5.3-.7v-.5zm.3 1c.1 0 .1 0 0 0 0-.1.1-.1.1-.2s0-.1-.1-.2h-.1v.2c.1.1.1.2.1.2zm-3.7 1.2s0 .1 0 0c0 .1 0 .1.1.1 0-.1.1-.1 0-.2h-.1v.1zM17 47l-.1.1h.1s.1 0 0-.1c.1 0 0 0 0 0zm-4.2-4.2s-.1 0 0 0c-.1 0-.1 0 0 0l-.1.1h.1c.1 0 .1 0 0-.1zM42.1 33.2c-.1 0-.1-.1-.1-.2l-.1-.1H41.3s-.1 0-.1-.1V32h.1c.1 0 .1 0 .2.1 0 0 0 .1.1.1h.1l.1-.1H42.1s.1 0 .1.1v.1h.1v-.2c0-.1 0-.1.1-.2v-.1h.1v.2h.4s.1.1.2.1h.2s0 .1.1.1H44.6s.1 0 .1-.1V32h.4s.1 0 .1.1h.2l.2.2h.2l.1-.1v-.1h.1c0 .1.1.1.1.1s.1 0 .1.1v.2s0 .1-.1.1H46v.1s.1.1.2.1h.1c0-.1.1-.1.2-.1 0 0 .1 0 .1.1h.1v-.1c0-.1 0-.1-.1-.2v-.1c0-.1 0-.1-.1-.1 0 0-.1-.1-.1-.2 0 0 0-.1.1-.1h.2c.1 0 .1.1.1.1V32.7h.1v-.1c0-.1.1-.1.1-.2l.1-.1s.1 0 .1-.1c0 0 0-.1.1-.1V32s0-.1-.1-.1v-.1s.1 0 .1-.1v-.2l-.1-.1h-.1l-.1.1v.1h-.2c-.2 0-.2 0-.3-.2v-.2H47.4c.1 0 .1.1.1.2V38c0 .1 0 .2-.2.2H46.6s-.1 0-.1-.1c-.1 0-.1-.1-.1-.2V35.5c0-.1 0-.2-.1-.3 0-.1 0-.2-.1-.4 0-.1 0-.3-.1-.4 0-.1-.1-.2-.1-.3V33.8c0-.1-.1-.2-.1-.3 0-.1-.1-.1-.1-.2s-.1-.1-.1-.2l-.2-.2c-.1-.1-.2-.1-.4-.2h-.5c-.1 0-.2 0-.3.1-.1.1-.2.1-.3.2v.1c-.1.2-.2.3-.2.5v5.7c0 .1.1.2.2.2s.2 0 .3-.1h.1c.1 0 .1-.1.2-.2 0-.1.1-.2.1-.2v-.8c0-.1.1-.1.1-.1H45.6l.1.1v4.4c0 .1-.1.1-.2.2h-.6c-.1 0-.1-.1-.1-.1V41.8c0-.1 0-.1-.1-.2s-.2-.2-.4-.3h-.2s-.1 0-.1.1v6.3s0 .1.1.1v.1h-.4v.1s0 .1.1.1v.2l-.1.1H43.4v.1s0 .1.1.1v.1l-.1.1v.2h.2s0-.1.1-.1h.1v.4s0 .1.1.1c0 0 .1 0 .1.1v.2H41.7c-.1 0-.1-.1-.1-.1V48.5c0-.1 0-.1.1-.1H42c.2 0 .3-.1.4-.3 0 0 .1-.1.1-.2v-14c0-.1 0-.1-.1-.2-.2-.4-.3-.4-.3-.5zm5.3.1c.1 0 .1 0 0 0 .1-.1.1-.1 0 0v-.1c-.1 0-.1 0-.1-.1 0 0-.1 0-.1-.1h-.4s-.1 0-.1-.1v-.1h-.5v.1H46.5l.1.1v.1c-.1.1-.1.2-.1.3v.2s0 .1.1.1v.1s0 .1.1.1h.1v-.2c0-.1.1-.1.1-.1v-.1.3s0 .1-.1.1v.1s.1 0 .1.1h.2c0-.1.1-.2.2-.2v-.5l.1-.1zm-.4 1.8c-.1 0-.1 0 0 0-.1 0-.2.1-.2.1v.1c.1.1.2.1.2.2h.1v-.1c0-.1 0-.1-.1-.2.1 0 0 0 0-.1zm-.2-.6v.1H47.1l.1-.1v-.1h-.1c-.1 0-.1.1-.2.1h-.1c.2 0 .1 0 0 0 .1 0 .1 0 0 0zm-3.5-.7c0-.1 0-.1 0 0v-.1l-.1-.1h-.5.1s.1 0 .1.1c.2 0 .3.1.4.1-.1 0 0 0 0 0zm-.7-1.3s0 .1.1.1l.1.1h.1c0-.1-.1-.1-.1-.2v-.1s0-.1-.1-.1h-.1v.2zm.3 15h.1v-.2s0-.1-.1-.1c0 0-.1 0-.1.1l-.1.1c.1 0 .2.1.2.1zm1.1.3c-.1-.1-.1-.1 0 0l-.1-.1v.2s.1.1.1 0c-.1-.1-.1-.1 0-.1zm1.7-14.9s.1-.1 0 0c.1-.1.1-.1 0 0l.1-.1s-.1-.1-.2-.1v.1s0 .1.1.1zm-1.6-.3c-.1 0-.1.1-.1.1s.1 0 .1.1h.1s.1-.1 0-.1c0-.1 0-.1-.1-.1zM42.6 34c0 .1.1.1 0 0h.2v-.1h-.1l-.1.1zm.2 13s.1 0 0 0h.2s.1-.1 0-.1h-.1c-.1 0-.1 0-.1.1zM47 32.9l.1-.1v-.1H47c-.1.1-.1.1 0 .2-.1-.1-.1 0-.1 0h.1zm-3.5 14.2c0-.1 0-.1 0 0 0-.1 0-.1 0 0-.1-.1-.2-.1-.2 0v.1h.1c0-.1.1-.1.1-.1zm.1-13.6c0 .1 0 .1 0 0 .1 0 .1 0 .1-.1l-.1-.1c-.1.1-.1.1 0 .2-.1 0-.1 0 0 0zm1.5-1.2c-.1-.1-.1-.1-.2 0v.1c.1 0 .1 0 .2-.1 0 .1 0 0 0 0zm2.3 0c-.1 0-.1 0-.1.1h.1v-.1c0 .1 0 0 0 0zm-5.2.1c0 .1.1 0 0 0 .1 0 .1-.1.1-.1-.1 0-.1 0-.1.1zm.6 13.7c-.1-.1-.1 0-.1 0s0 .1.1 0zm.8.6s.1 0 0 0c.1 0 .1 0 0 0 .1 0 .1 0 0 0 .1 0 0 0 0 0zm.2-12.3c-.1 0-.1 0 0 0-.1.1-.1.1 0 0 0 .1 0 .1 0 0zm-.8-1.2c-.1 0-.1 0 0 0-.1 0-.1 0 0 0zm.1 10.3s0 .1 0 0c0 .1 0 .1 0 0 .1.1.1.1 0 0zM61.6 32.6s-.1 0 0 0v-.2s0-.1-.1-.1h-.1v.1c0 .1 0 .1.2.2l-.1-.1h-.7v.2s-.1 0-.1.1l-.1.1c-.1 0-.1.1-.1.1 0 .1-.1.2-.1.3v.1c0 .1 0 .2-.1.3 0 .1 0 .3-.1.4 0 .1 0 .2-.1.2V35.5c0 .3 0 .5.1.8v.1c0 .1 0 .1.1.2 0 .1.1.1.1.2s0 .2.1.3c0 .1.1.2.1.2.1.1.1.2.2.3 0 .1.1.1.1.2.1.1.1.2.2.2.1.1.1.1.1.2 0 0 0 .1.1.1l.1.1c.1.2.3.4.4.6.1.2.2.3.4.5.1.2.2.3.4.5.1.1.1.2.2.3l.6.9s.1 0 .1.1.1.1.1.2.1.1.1.2c0 0 0 .1.1.1l.3.6c0 .1.1.2.1.2.1.3.2.5.3.8.1.3.1.5.2.8v.5c0 .1-.1.2-.1.4 0 .1-.1.3-.1.4v1.1c0 .2 0 .3-.1.5V47.4c-.1.3-.2.5-.4.8l-.1.1c-.1.1-.2.3-.3.4v.1c-.1.1-.3.2-.4.3 0 0-.1 0-.1.1 0 0-.1 0-.1.1 0 0-.1 0-.1.1-.1 0-.1 0-.2.1H61.3c-.1 0-.1-.1-.2-.1-.1-.1-.1-.1-.2-.1 0 0-.1 0-.1-.1h-.2s-.1 0-.1.1h-.1c-.1.1-.2.2-.4.2H58.9V43c0-.1.1-.1.2-.1h.1c.1 0 .2 0 .3.1H59.8c.1 0 .1.1.1.1v2.7c0 .3.1.6.1.9v.5c.1.1.1.3.2.4.1.1.1.2.2.3.1.1.2.3.4.4h.2c.1 0 .1.1.2.1 0 .1.1.1.2.1h.2c.2 0 .4-.1.6-.2.1 0 .1-.1.2-.1l.3-.3c0-.1.1-.2.1-.2 0-.2.1-.3.1-.5s.1-.4.1-.5v-1.6c0-.1 0-.2-.1-.3 0-.2-.1-.3-.1-.5 0-.1-.1-.3-.1-.4 0-.1-.1-.2-.1-.3l-.3-.6c0-.1-.1-.1-.1-.2-.1-.1-.1-.1-.1-.2s0-.1-.1-.2c-.2-.3-.3-.5-.5-.8-.1-.1-.2-.3-.3-.4-.2-.3-.4-.6-.6-.8-.1-.1-.1-.2-.2-.3l-.6-.9c-.1-.2-.3-.5-.4-.7-.1-.2-.2-.5-.3-.7 0-.1-.1-.2-.1-.3 0-.1 0-.3-.1-.4v-.5c0-.2-.1-.4-.1-.6 0-.3-.1-.5 0-.8v-.8c0-.2 0-.4.1-.6 0-.2.1-.4.1-.6 0-.1.1-.2.1-.3 0-.1.1-.2.1-.3.1-.2.3-.5.4-.6l.1-.1.1-.1c.2-.1.4-.3.5-.4.1-.1.2-.1.3-.1.1 0 .2-.1.3-.1.2 0 .3 0 .5.1l.1.1c.1 0 .1.1.2.1.1.1.3.1.4.2h.1c.1 0 .2 0 .2-.1.1 0 .1-.1.2-.2l.1-.1.1-.1h.9s.1 0 .1.1V37.7s0 .1-.1.1H63c-.1 0-.1-.1-.1-.1V35.4c0-.3 0-.6-.1-.8 0-.1-.1-.3-.1-.4 0-.1-.1-.3-.1-.4-.1-.1-.1-.3-.2-.4 0 0 0-.1-.1-.1-.1-.2-.2-.3-.3-.3l-.1-.1v-.1l-.1-.1h-.1l-.1-.1c0 .1 0 .1 0 0zm-.4-.9c0 .1 0 .1 0 0-.1.1-.1.2-.1.2h.1c.1-.1.1-.1 0-.2.1 0 0 0 0 0zm-1.7 17s0 .1 0 0c0 .1 0 .1 0 0 0 .1 0 .1 0 0 .1.1.1.1 0 0 .1 0 0 0 0 0zm1.4-16.9s0-.1 0 0c0-.1 0-.1 0 0 0-.1 0-.1 0 0-.1-.1 0 0 0 0zM21.1 38.5V47.5c0 .1 0 .1.1.2l.3.3h.1c.1 0 .1.1.1.1V49.5c0 .1-.1.1-.2.1H18.1c-.1 0-.2-.1-.2-.1V48.3c0-.1 0-.1.1-.1H18.3c.1 0 .2-.1.3-.2.1-.1.1-.1.1-.2s.1-.2.1-.3V33.4c0-.1-.1-.1-.1-.1 0-.1-.1-.1-.2-.2-.1 0-.2-.1-.2-.1H18v-1.1c0-.1.1-.1.1-.1H21.7V33.1s0 .1-.1.1c0 0-.1 0-.1.1-.1 0-.2.1-.2.1h-.1c-.1.1-.2.2-.2.3V38.8c.1-.5.1-.5.1-.3 0-.1 0-.1 0 0zm-.8 10s-.1 0 0 0c-.1 0-.1 0 0 0-.1-.1-.1-.1-.2-.1V48.7h.6v-.1h-.2c-.1 0-.2 0-.2-.1zm.2-12.1-.1.1.1.1.1.1h.1s.1-.1 0-.2c0 0 0-.1-.1-.1V36.1c-.1.2-.1.3-.1.3zm0-.5s0-.1 0 0c-.1-.1-.1-.1-.2-.1h-.1s0 .1.1.1h.2c-.1 0-.1 0 0 0zm-.3 12.3s0-.1 0 0c-.1-.1-.1-.1-.2 0v.1c.1 0 .2 0 .2-.1zm-.1-13.4c.1-.1 0-.2 0-.2-.1.1-.1.1 0 .2-.1 0-.1 0 0 0-.1 0-.1 0 0 0zm0 .6v-.1H20c0 .1 0 .1.1.1 0 .1 0 .1 0 0zM46.2 47.7c0-.1.1-.2.1-.3.1-.2.1-.3.2-.5v-3.6c0-.1 0-.2.1-.3h.9c.1 0 .1.1.1.1V49.7l-.1.1H44.8s-.1 0-.1-.1v-.1h.4l.1-.1v-.2H45.5v-.7s.1 0 .1-.1c.1 0 .1-.1.1-.1.3-.5.4-.6.5-.7zm.9.9-.1-.1h-.1V49.1h.2c0-.1.1-.1.1-.2v-.2l-.1-.1zm-.2-1.8h-.2v.1h.1c.2 0 .2 0 .1-.1.1 0 .1 0 0 0zm.2-.3c.1-.1 0-.1 0-.1H47c0 .1 0 .1.1.1-.1 0-.1 0 0 0zm.3 2.1c0 .1 0 .1 0 0 0 .1 0 .1 0 0 0 .1.1.1 0 0 .1.1.1 0 .1 0h-.1zm-1.5 0c-.1 0-.1.1-.1.1.2-.1.2-.1.1-.1zm1.3-.6s0-.1 0 0c0-.1-.1-.1-.1 0h.1zm-1.5 1.3s0-.1 0 0c0-.1 0-.1 0 0-.1 0 0 0 0 0z"/><path d="M44.6 49c0-.1-.1-.2 0-.3v-.1l.1-.1h.1c.1 0 .1.1.1.1V48.9c0 .1-.1.1-.2.2l-.1-.1zM44.6 49.4s.1 0 0 0l.1.1-.1.1h-.4l-.1-.1c0-.1 0-.1.1-.1h.4zM52.1 49.3v.1H52s0-.1-.1-.1v-.1c.1 0 .1-.1.2-.1h.1s0 .1-.1.2c.1-.1 0 0 0 0zM43.7 31.3s.1 0 .1.1v.1h-.4s-.1 0-.1-.1c.3-.1.3-.1.4-.1zM34.2 31.2h.3-.3c-.1.1-.1.1 0 0zM35.7 32.2c-.1 0-.1-.1 0 0 0-.1 0-.1-.1-.2v-.1s0-.1.1-.1h.1c0 .2-.1.3-.1.4zM45.5 31.3s0 .1 0 0c-.1.1-.2.1-.2.2 0 0-.1 0-.1-.1l.1-.1h.2zM5.7 31.4c0 .1-.1.1-.1.1h-.2.1c0-.1.1-.1.2-.1zM6.8 31.5h-.4v-.1c.3-.1.4 0 .4.1.1 0 .1 0 0 0 .1 0 .1 0 0 0 .1 0 .1 0 0 0 .1 0 0 0 0 0zM37.4 31.3v.1h-.1c-.1 0-.1 0-.2-.1v-.1c.2.1.2.1.3.1zM35.1 31.3s-.1.1 0 0c-.1.1-.2.1-.2 0h.2zM41.6 31.9s0-.1 0 0l.1-.1s.1 0 0 .1h-.1c.1.1.1 0 0 0zM36 31.3c.1 0 .1-.1.2 0 0 0 .1 0 .1.1 0 0 0 .1-.1.1l-.2-.2zM44.6 31.4c0-.1 0-.1 0 0h.2-.2zM45.9 31.4c0-.1 0-.1 0 0 0-.1 0-.1 0 0 .1-.1.1-.1.1 0h-.1zM35.6 31.6c-.1.1-.1 0 0 0-.1 0-.1 0 0 0-.1-.1 0 0 0 0zM33.8 31.3h.1-.1zM50.9 36.7c0-.1 0-.1 0 0h.1v.2h-.1c-.1-.1-.1-.2 0-.2zM7.2 18.7c0 .1 0 .1-.1.2 0 0 0 .1-.1.1 0 .1.1.2.1.3V27.6c0 .1.1.2.2.3l.3.3s.1 0 .1.1v.2c0 .1.1.1.1.1V28.9c.1.1.1.1.2.1h.1s.1 0 .1-.1v-.2c0-.1 0-.1.1-.1s.2-.1.3-.1h.1c.1 0 .1 0 .1.1l.1.1v.1c0 .1 0 .1-.1.2V30.2c0 .2 0 .3-.1.4H4.1v-.1s-.1 0-.1-.1h-.4l-.1.1H3l-.1-.1c-.1 0-.1 0-.2-.1-.1 0-.1 0-.1-.1v-.1c0-.3-.1-.6-.1-.9v-1s0-.1.1-.1h.1c.1 0 .1 0 .1-.1 0 0 .1-.1.1 0h.6c.1-.1.2-.1.3-.2l.1-.1.1-.1s0-.1.1-.1c.1-.1.1-.1 0-.2v-.4c0-.1 0-.1.1-.1l.1-.1v-.5l-.1-.1V26s0-.1.1-.1c0-.1.1-.1.1-.2v-.1c-.4.4-.4.3-.4.3s0-.1-.1-.1v-.4s0-.1.1-.1V23.2c0-.1.1-.1 0-.2v-.1c0-.1 0-.1.1-.2V22c-.1 0-.1 0-.1-.1V12.5c0-.1 0-.2.1-.3v-3C4 9.1 4 9 4 8.8c0-.1 0-.3.1-.4v-.2c0-.1 0-.1-.1-.2-.1-.2-.1-.4 0-.6V7.1c0-.1 0-.3-.1-.4V6.4c.1 0 .1-.1.1-.2s0-.1.1-.2v-.4c-.1 0-.1-.1-.1-.1v-.1s0-.1-.1-.1v-.1c-.1-.1-.1-.2-.2-.2l-.2-.2h-.2c-.1 0-.3-.1-.4 0h-.4c0-.1 0-.2-.1-.2V2.7c.1-.1.2-.2.3-.2h6.7c.2 0 .5 0 .7.1.2 0 .3 0 .5.1.1 0 .2.1.3.1.2 0 .4.1.6.2.1 0 .1.1.2.1 0-.2 0-.1.1-.1.2.1.3.2.4.3l.2.2.1.1c.2.2.4.5.6.7.1.1.1.2.2.3 0 .1.1.2.1.2.1.1.1.3.2.4 0 .1.1.2.1.3 0 .1.1.2.1.3.1.2.1.4.2.6V12c0 .2-.1.4-.1.6-.1.3-.1.6-.2.8-.1.2-.2.5-.3.7l-.3.6-.1.1-.1.1-.1.1-.1.1-.3.3-.1.1c-.1.1-.2.1-.3.2l-.1.1c.1.2 0 .2 0 .2s-.1.1-.2.1h-.1l-.1.1h-.1c-.1 0-.1.1-.2.1 0 0-.1 0-.1.1 0 0-.1 0-.1.1l-.1.1-.1.1s-.1 0-.1.1c-.1 0-.1.1-.2.1 0 0-.1 0-.1.1-.1.1-.1.1-.3.1H10c-.1 0-.1 0-.2.1s-.3.1-.4.2c0 0-.1 0-.1.1-.1.1-.3.1-.4.1-.1 0-.2.1-.4.1-.1 0-.3.1-.4.1H7.2c-.1 0-.1.1-.1.1v.4c.1 0 .1.2.1.4zm-.6-3.5s-.1 0 0 0c-.1.1-.1.1-.2.1h-.6v.1H6c.1 0 .1 0 .2-.1H6.5s.1 0 .1-.1zm5-4.2h.2c.1 0 .2.1.3.1h.1v.1s0 .1.1.1h.1s.1-.1.2-.1h.1s.1-.1 0-.1h-.1c-.1 0-.2.1-.2.1h-.2V11c-.1 0-.2-.1-.3-.1h-.1c-.1 0-.1.1-.2.1 0-.2 0-.2 0 0 0-.1 0-.1 0 0h-.1v.1c-.1-.1 0 0 .1-.1-.1.1-.1 0 0 0zM7.3 6.4v8.5s0 .1.1.1h1.1c.1 0 .2 0 .4-.1.1 0 .3-.1.4-.1.1 0 .2-.1.2-.1.1 0 .1-.1.2-.1 0 0 .1 0 .1-.1.1 0 .1-.1.2-.1l.3-.3c.2-.2.3-.5.4-.7 0-.2.1-.3.1-.5 0-.1 0-.3.1-.4 0-.2.1-.4.1-.6v-.5c0-.2 0-.4.1-.5V7.7c0-.2 0-.3-.1-.5 0-.2-.1-.3-.1-.5 0-.1-.1-.2-.1-.4 0-.1-.1-.2-.1-.3-.1-.3-.2-.6-.4-.9-.1-.1-.1-.2-.2-.3l-.1-.1c0 .2-.2.1-.3 0h-.1c-.1 0-.2-.1-.3-.1-.1-.1-.2-.1-.3-.1H8.1s-.1 0-.1.1c-.1-.1-.2 0-.3.1l-.2.2c0 .1-.1.2-.1.3v.5c-.1.3-.1.5-.1.7zM6.2 27.8c.1 0 .1.1 0 0 .1.1.1.1 0 0h.1v-.1l-.1-.1v-.5s-.1 0-.1-.1v-.2c0-.1 0-.1-.1-.2h-.1v.7h-.2v-.4h-.1v.1s0 .1-.1.1c0 0-.1 0-.1.1s-.1.1-.1.2v.1s0 .1.1.1h.5l.1.1c.2 0 .2.1.2.1zM3.4 30s0 .1 0 0l.1.1v.1l-.1.1v.1h.4V30.1s0-.1-.1-.1H3.4s-.1 0-.1-.1c0 0 0-.1-.1-.1h-.1v.1c.2 0 .2.1.3.1zm2.4-1.1c0-.1 0-.1 0 0 0-.1-.1-.1-.1-.2v-.2s0-.1-.1-.1h-.2v-.1h-.2v.1s0 .1.1.1v.1l-.1.1v.1h.1c.1 0 .1.1.2.1h.1c.1.1.2.1.2 0zm-1.7-.4c-.1 0-.1 0 0 0-.1 0-.1.1-.1.1v.1h.4s.1 0 .1-.1c.1 0 .1 0 .1-.1v-.1s0-.1.1-.1v-.1h-.1l-.1.1s-.1 0-.1.1h-.1s0-.1-.1-.1v.1s-.1 0-.1.1zm8.8-20.7c-.1 0-.1 0 0 0-.1 0-.1.1 0 0v.1s.1 0 .1.1h-.1s-.1.1 0 .1H13.2V8c0-.1-.1-.1-.1-.1s0-.1-.1-.1c0 0 0-.1-.1-.1.1.2 0 .1 0 .1zm-4.8 22h.2V29.5h-.2s-.1.1-.2.1v.2c.1-.1.1 0 .2 0-.1 0 0 0 0 0zm-2.3-6.2c0-.1-.1-.1-.1-.1s-.1 0-.1.1-.1.2-.1.2H5.8v-.2c0 .1 0 .1 0 0zm.1-3.4s.1 0 0 0c.1.1.1.1.2.1l.1-.1v-.4s-.1 0-.1.1v.1c-.1 0-.1 0-.2.2 0-.1 0-.1 0 0 0-.1 0-.1 0 0zm-.8-2.7H5.4c.1 0 .1-.1.1-.2 0 0-.1-.1-.1 0 0 0-.1 0-.1.1l-.1.1c0-.1 0-.1-.1 0 .1-.1.1-.1 0-.1H5c0-.1 0 0 .1.1-.1-.1-.1 0 0 0zm1.1-.1v.2-.1c0-.1 0-.1.1-.2H6v.1c0-.1.1-.1.2 0 0-.1 0 0 0 0zm-1.3 5.8H5c.1 0 .1-.1.2-.1V23c-.1-.1-.1-.1-.2-.1 0 0-.1 0-.1.1-.1 0-.1.1 0 .2zm4.8-7.7h-.2s-.1 0-.1.1v.1c0 .1 0 .1.1.1h.2v-.3c0 .1 0 .1 0 0zm-.4.9c.1 0 .1 0 .2-.1l.1-.1v-.1h-.1l-.1.1c-.1 0-.1.1-.2.1h-.1v.1c.1.1.1.1.2 0zm-4.3 0c0 .1 0 .1 0 0v.1s.1.1.1 0l.2-.2v-.1h-.1c0 .1-.1.1-.2.2.1 0 .1 0 0 0zm-.3 12.7s.1 0 0 0c.1.1.1.1 0 0 .1.1.1.1.1 0 .1 0 .1-.1.2-.1v-.2s-.1-.1-.1 0h-.1c0 .1 0 .2-.1.3zM6.1 16c-.1-.1-.2 0-.3 0v.1s0 .1.1.1H6s.1 0 .1-.1c0 0 .1 0 0-.1zM4.5 27.7h.1v-.2s0-.1-.1-.1h-.1c.1 0 .1.1.1.3-.1-.1 0 0 0 0zm4.4-11.3c-.1-.1-.1-.1-.1-.2v-.1s-.1 0-.1-.1h-.1s-.1.1 0 .1v.1l.2.2c0 .1.1.1.1 0zM9.7 3c.1 0 0-.1 0 0 0-.2-.1-.2-.1-.2h-.1V3s.1.1.2 0zm-.7.3v.2h.2V3.2h-.1v.1c-.1-.1-.1-.1-.1 0zM6.6 16.1H6.3v.1c0 .1 0 .1.1.1h.2v-.2c0 .1 0 .1 0 0zm0-11.9H6.3s-.1 0-.1.1v.1h.2c.2-.1.2-.2.2-.2zm-1.1 6.5s-.1 0 0 0c-.1 0-.1 0 0 0h-.1s-.1 0-.1.1v.1c0 .1.1.1.2 0v-.2c0 .1 0 0 0 0zm-.6 16.1c0 .1 0 .1 0 0-.1.1-.1.1 0 .1h.2s.1 0 .1-.1v-.1c-.1.1-.2.1-.3.1.1 0 0 0 0 0zm.9-.4s-.1-.1 0 0c-.1 0-.1 0-.1.1v.2h.1s.1 0 .1-.1c-.1-.1-.1-.2-.1-.2zm0-.7h.1V25.4h-.1l-.1.1c0 .1 0 .1.1.2zm6.5-17.1h.1s.1 0 .1-.1 0-.1-.1-.1h-.1v.2zM5.1 5.5s.1.1 0 0l.1.1v-.2h-.1v.1c0-.1 0 0 0 0zM8 3.6s.1 0 0 0c.1 0 .2-.1.2-.1 0-.1 0-.1-.1-.1H8v.2zM5.7 28c.1 0 .1.1 0 0l.1.1.1.1H6v-.1s0-.1-.1-.1c0-.1-.1-.1-.2 0 .1 0 .1 0 0 0zm6.4-20.2v.1h.2s.1-.1 0-.1h-.2zm.5 1.4c0-.1-.1-.1 0 0h-.1v.1s0 .1.1.1h.1c-.1-.1-.1-.2-.1-.2zM6.7 27.6c.1 0 .1 0 0 0l.1-.1h-.2v.1c0-.1.1 0 .1 0zM8.6 17h.1c.1 0 .1-.1 0-.1h-.2c.1 0 .1 0 .1.1zm4.7-7.2c.1 0 .1-.1 0 0 0-.1 0-.1-.1-.2h-.1.1l.1.2zM6.6 28.9c.1 0 .1 0 0 0 .1 0 .1 0 0 0 .1 0 .1-.1.1-.1 0-.1-.1-.1-.1-.1v.2c-.1 0 0 0 0 0zm-1.7.9H5v-.1c-.1-.1-.1 0-.2 0 .1 0 .1 0 .1.1 0-.1 0 0 0 0zm1.5-17.5c-.1 0-.1 0-.1.1v.1h.1c.1-.1.1-.2 0-.2zM5 19.7s-.1 0 0 0h-.2v.1h.1c.1 0 .1 0 .1-.1 0 .1 0 .1 0 0zm2-4.1c0-.1 0-.1 0 0 .1-.1 0-.1 0-.1-.1 0-.1.1-.1.1H7zM5 28.4s0-.1 0 0v-.1h-.1s0 .1-.1.1c0 0 0 .1.1 0H5zm2.2.5s0 .1 0 0v.1h.1s.1 0 .1-.1v-.1c0 .1-.1.1-.2.1.1 0 .1 0 0 0zM6.8 27s.1 0 0 0c.1 0 .1 0 0 0 .1-.1.1-.1 0-.1h-.2c.1.1.1.1.2.1zM4 29.3c-.1 0-.1 0 0 0v.2s.1 0 .1-.1 0-.1-.1-.1zm9.6-20.2s0-.1 0 0c0-.1 0-.2-.1-.3h-.1v.1c.1 0 .1.1.2.2zM6 12c0-.1-.1-.1 0 0h-.1v.1H6V12zm-.2 18.3c-.1 0-.1 0 0 0-.1 0-.1 0 0 0-.1 0-.2 0-.1.1 0 0 0 .1.1.1h.1c-.1-.1-.1-.2-.1-.2zM3.3 4h.1v-.1h-.1V4c-.1-.1-.1 0 0 0zm3.1 24.7s-.1-.1 0 0c-.1-.1-.1-.1-.2 0v.1c.1 0 .1 0 .2-.1zm.5.5c.1 0 .1 0 0 0 .1 0 .1 0 .1-.1V29c-.1.1-.1.1-.1.2zm-1.2-9.4v.1h.1c0-.1 0-.1-.1-.1.1-.1.1-.1 0 0zm-.1-4.2c-.1 0-.1 0 0 0-.1 0-.1.1-.1.1s0 .1.1.1v-.2zm-3 13.1c.1 0 .1 0 0 0 .1.1.1.1 0 0l.1.1v-.1c.1-.1.1-.1-.1 0 .1-.1.1-.1 0 0 .1-.1.1 0 0 0zm3.7-9.6h.2V19c-.1 0-.1 0-.2.1zm4.8-14.6c.1.1.1.1 0 0h.1-.1c.1-.1.1-.1 0 0zM4.8 16.4s.1 0 0 0l.1-.1h-.2c.1 0 .1 0 .1.1 0-.1 0 0 0 0zm6.8-4.4s0 .1 0 0c0 .1 0 .1.1.1 0 0 .1 0-.1-.1.1 0 .1 0 0 0 .1 0 .1 0 0 0zM6 21.6c.1 0 .1-.1 0 0l.1-.1H6v.1zm-.9-4.8c-.1.1-.1.1 0 .2h.1c0-.1 0-.1-.1-.2.1.1 0 0 0 0zm.4 2.4s-.1 0 0 0c-.1.1-.1.1 0 .1h.1c-.1 0-.1 0-.1-.1zm0-3.9v.1c.2-.1.2-.1 0-.1.1-.1.1-.1 0 0 .1-.1.1 0 0 0zm-.9 11.1h-.1c-.1 0 0 .1.1 0-.1 0-.1 0 0 0zm5.9-10.5c-.1.1-.1.1 0 .1h.1s0-.1-.1-.1c.1 0 .1 0 0 0 .1 0 .1 0 0 0zM5.9 28.5c.1 0 .1 0 0 0 .1-.1.1-.1 0-.1h-.1c.1 0 .1.1.1.1zm-.3 1.4c0 .1 0 .1 0 0 .1.1.1.1 0 0 .1 0 .1 0 0 0 .1-.1 0-.1 0 0zm.7-3c0 .1 0 .1 0 0v.1c.1 0 .1 0 0-.1.1.1.1 0 0 0zm-2.6 2-.1.1h.1v-.1c0 .1 0 .1 0 0zM6 14.2c-.1 0-.1 0 0 0 0 .1 0 .1 0 0 0 .1 0 0 0 0zm-.3 15.2s-.1 0 0 0c-.1 0-.1 0 0 0-.1.1-.1.1 0 0 0 .1 0 0 0 0zm1.2-.8s-.1 0 0 0c-.1 0-.1 0 0 0-.1 0-.1 0 0 0-.1 0-.1 0 0 0zM45.5 23.4c0 .1-.1.1-.1.2-.1.1-.1.2-.1.3V24.5c0 .1 0 .2-.1.3v.4s0 .1-.1.1V25.6H45V25.3c0-.1-.1-.1-.1-.1s-.1 0-.1.1v.1c0 .1-.1.1-.1 0H44.4V25.1h-.2s-.1 0-.1.1c0 .2-.1.1 0 .3 0 0 0 .1.1.1v.1s-.1.1-.1.2l-.1.1v.2s0 .1-.1.1v-.2s0-.1-.1-.1h-.9s-.1 0-.1-.1l-.1-.1s0-.1.1-.1h.1l.1.1h.1v-.2l-.1-.1s-.1-.1-.1 0-.1.1-.1.2h-.1c-.1 0-.1.1-.1.1h-.1V23.2c0-.1 0-.1.1-.2h.1-.1c-.1 0-.1-.1-.1-.1V8.5c-.5-.5-.5-.6-.5-.8V6.6c0-.1-.1-.1-.1-.1V6c.1-.2.1-.3.1-.4v-.1c0-.1-.1-.2-.1-.2l-.2-.2c-.2-.1-.3-.2-.5-.2H40.9c-.1 0-.1-.1-.1-.2V2.9c0-.1 0-.1.1-.1l.1-.1.1-.1s.1 0 .2-.1H43.2s.1 0 .1.1v.2s0 .1.1.1H43.7V3h-.2c-.4 0-.4 0-.5.1h-.1s-.1 0-.1.1v.1c.1 0 .2.1.2.1v.1s0 .1.1.1h.1l.1-.1-.1-.1v-.1s0-.1.1-.1H43.6V2.9s0-.1.1-.1c0 0 .1 0 .1.1H44.1c.1 0 .1-.1.2-.1v-.1h-.1v.1s0 .1-.1.1h-.5s-.1 0-.1-.1v-.2l.1-.1H46.5c.1 0 .1 0 .1.1v.3s0 .1.1.2V4.5c0 .1-.1.1-.1.1H46s-.1 0-.1.1c0 0-.1 0-.1.1-.1 0-.2.1-.3.2 0 0 0 .1-.1.1 0 0 0 .1-.1.2 0 0 0 .1-.1.1v.1c0 .1-.1.1-.2.2l-.1.1V13.2s0 .1-.1.1h-.1s-.1 0-.1-.1h-.2l.1.1.1.1H44.9s.1 0 .1.1v.6c0 .1 0 .2-.1.2V14.6s0 .1-.1.1v.1c0 .1 0 .1.1.1 0 0 .1 0 .1.1v1.4l-.1.1h-.1l-.1.1v.1h.1l.1.1v.4c0 .1 0 .1-.1.2h-.4v-.2h.1v-.1H44v.1l-.1.1s-.1 0-.1.1v.2c0 .1 0 .1-.1.1h-.1s-.1 0-.1-.1V17.3c.1-.1.1-.2 0-.4v-.1h-.2s-.1 0-.1-.1v-.1h-.1s-.1 0-.1.1v.5c0 .1 0 .1-.1.1 0 0-.1 0-.1.1v.2h.2c.1 0 .1-.1.2-.1 0 0 .1 0 .1.1v.1s0 .1.1.1l.1.1h.2s.1 0 .1.1H44.4l.1-.1h.2l.1.1v.4s0 .1.1.1h.1c0-.1.1-.1.1-.2l.1-.1c0-.1 0-.1.1-.1 0 0 0-.1.1-.1v-.2c0-.1 0-.3.1-.4 0 0 0-.1.1-.1 0 0 0-.1.1-.1.1-.2.1-.4.2-.6v-.2c0-.1.1-.1.1-.2s0-.1.1-.2v-.2c0-.1.1-.1.1-.2h.1v-.1l-.1-.1v-.2c0-.1 0-.1.1-.2 0 0 0-.1.1-.1.1-.1.1-.2.2-.4h.2c0-.1-.1-.2 0-.2v-.1c0-.1.1-.2.1-.3v-.1c.1-.1.1-.2.1-.4s.1-.3.1-.5c0-.1.1-.1.1-.2v-.1c0-.1 0-.3.1-.4 0-.1 0-.1.1-.2 0 0 0-.1.1-.1v-.1c0-.1 0-.2.1-.3 0 0 0-.1.1-.1 0-.1 0-.2.1-.2 0-.1 0-.2.1-.2v-.7c0-.1 0-.1.1-.2V10c0-.1.1-.3.1-.4v-.2c0-.1.1-.2.1-.4 0-.1.1-.2.1-.3v-.1c0-.1 0-.2.1-.3v-.1c0-.1.1-.2.1-.3 0 0 0-.1.1-.1 0-.1 0-.2.1-.3 0-.1 0-.1.1-.2v-.4s0-.1.1-.1v-.1s0-.1-.1-.1c0 0-.1-.1-.1-.2s-.1-.2-.1-.2 0-.1-.1-.1c0-.1-.1-.1-.2-.2s-.2-.1-.2-.2l-.1-.1c-.1 0-.2-.1-.3-.1h-.1c-.1 0-.1 0-.1-.1-.1-.1-.1-.2-.1-.3V5c0-.1.1-.1 0-.3V3.5c0-.1.1-.2.2-.2H52.5l.1.1V3.7c0 .1 0 .2.1.2v1.2c0 .1-.1.2-.2.3h-.3c-.1 0-.3 0-.4.1h-.1l-.1.1c-.3.1-.4.4-.5.6 0 0-.1.1-.1.2 0 .3-.1.5-.2.8 0 .2-.1.3-.2.5 0 0 0 .1-.1.1 0 .1-.1.2-.1.2 0 .1 0 .2-.1.3v.2c0 .1 0 .1-.1.2v.4c0 .1 0 .1-.1.2s-.1.3-.1.4v.2c0 .1 0 .1-.1.2v.1s0 .1-.1.1c0 .1 0 .1-.1.2 0 .1-.1.3-.1.4 0 .1-.1.2-.1.4 0 .1 0 .2-.1.3 0 .1-.1.2-.1.4-.1.2-.1.4-.2.6 0 .1 0 .1-.1.2s-.1.3-.2.4c0 .1-.1.3-.1.4v.1c0 .1-.1.2-.2.2h-.1.1v.6c0 .1 0 .1.1.2 0 .2.1.3.1.5v.8c0 .2 0 .3.1.5 0 .1.1.2.1.2v.1c0 .1 0 .1.1.2V17.6c.1.4.2.7.3 1.1v.1c0 .1.1.2.1.2 0 .2.1.4.1.5 0 .1.1.3.1.4 0 .1 0 .2.1.3v.1c0 .1.1.2.1.3v.5c0 .1.1.2.1.2 0 .1 0 .2.1.3v.4c0 .1.1.1.1.2v.5c.1.2.2.5.3.8 0 .1.1.3.1.4v.2c0 .1.1.2.1.3V24.7c.1.3.1.7.2 1 0 .1 0 .2.1.3v.2c0 .1.1.3.2.4V27.2c.1.1.1.2.1.3v.3c0 .1 0 .2.1.3v.1c0 .1 0 .2.1.3V28.8l.1.1c0 .1 0 .1.1.2 0 .1.1.1.1.2h.2c.1 0 .1.1.2.1s.2 0 .4.1H53.2l.1.1v.1c0 .1.1.2.1.4v.5c0 .1 0 .2.1.3v.4l-.1.1-.1.1c-.1 0-.1 0-.2.1H51c-.2 0-.3 0-.5.1h-2.2c-.1 0-.3 0-.4-.1H47.2c-.1-.1-.1-.2-.1-.2V29.8c0-.1 0-.1.1-.1h.1c.1 0 .1 0 .1-.1.1 0 .2-.1.2-.1l.2-.2H48.1l.1-.1V29l.1-.1s.1-.1.1-.2v-.8c0-.1 0-.2-.1-.3v-.1c0-.2-.1-.3-.1-.5V26.7c0-.1-.1-.3-.1-.4 0-.2-.1-.4-.2-.6 0-.2-.1-.3-.1-.5s-.1-.5-.1-.7c0-.1-.1-.1-.1-.2V23.6s0-.1.1-.1h.2l.1-.1v-.1h-.4v-.5c0-.1 0-.1-.1-.2v-.4s0-.1-.1-.1c-.1-.2-.1-.3-.1-.5v-1.5s0-.1.1-.1c0 0 .1 0 .1-.1v-.1l-.1-.1H47l-.1.1v.1c0 .1-.1.2-.1.3 0 .1-.1.2-.1.3 0 .1 0 .3-.1.4 0 0 0 .1-.1.1l-.1.1V21.4H46.1l-.1.1v.1h.2s.1 0 .1.1v.1c0 .1 0 .2-.1.3v.1l-.1.1v.7c0 .1-.1.2-.1.3 0 .2-.1.3-.1.5-.3-.5-.3-.5-.4-.4zm3.5-2.5h-.1l-.1-.1h-.1v.2l.1.1.2-.2c.1 0 .1 0 .2-.1v-.1H49c0 .1-.1.1 0 .2zM44.5 9.2h.1s.1 0 .1-.1l-.1-.1v.1c-.2-.1-.2 0-.1.1-.1-.1-.1 0 0 0-.1 0-.1 0 0 0h-.2c-.1 0-.1.1-.1.1s0 .1.1.1c0 0 .1 0 .1-.1 0 0 0-.1.1-.1-.1 0-.1 0 0 0zm-.2 15.1H44v-.2s0-.1.1-.1c0 0 0-.1.1-.1 0 0 .1 0 .1-.1v-.1h.1v.2h.1l.1-.1h.1l.1.1s.1 0 .1-.1v-.1s0-.1.1-.1H45.3s.1 0 .1-.1v-.1h-.2v-.2c.1-.1.1-.1.2-.1V23s-.1 0-.1-.1v-.2s-.1-.1-.1 0c0 0-.1 0-.1.1v.4h-.5c-.1 0-.1 0-.2-.1s-.1-.1-.2-.1l.1-.1H44.6v-.4h-.1v.1c0 .1 0 .1-.1.2-.1 0-.1.1-.2.1h-.1v-.5s0-.1.1-.1H44.5c0-.1-.1-.1-.1-.1 0-.1.1-.1.1-.2v-.1l-.1-.1v-.1h-.1v.1c0 .1.1.1.1.2v.1c0 .1 0 .1-.1.2l-.1.1s0 .1-.1.1c0 0-.1 0-.1.1h-.2l-.1.1s-.1 0-.1.1l-.1.1v.1s-.1.1-.1 0h-.5V23.3l-.1.1v.2s0 .1.1.1l.1.1h.5s.1 0 .1.1v.4h.1s.1 0 .1.1v.4c0 .1-.1.1-.1.2v.2h-.1s-.1 0-.1.1v.1h.2l.1-.1v-.2h.4l.1.1s.1 0 .1.1h.1v-.1h-.1l-.1-.1.1-.1c0-.7 0-.7-.1-.7zm-.7-18.7s-.1 0 0 0h-.5l-.1.1H42.7l-.1.1h-.2V6h.1l.1.1s0 .1-.1.1c0 0-.1 0-.1.1v.2h.1s.1 0 .1-.1l.1-.1v.1l-.1.1c0 .1 0 .1-.1.2 0 0 0 .1-.1.1l-.1.1V7l.1.1h.3s.1 0 .1-.1v-.4s.1 0 .1.1c.1 0 .1.1.1.1H43.3s.1 0 .1.1h.1s.1 0 .1-.1l.1-.1h.1l.1-.1v-.2c0-.1-.1-.1-.2-.1 0 0 0-.1-.1-.1h-.2s0 .1-.1.1h-.1v-.1s0-.1.1-.1c0-.1.1-.1.2-.1H43.8l.1-.1c.1.1.1.1.1 0v-.2s0-.1-.1-.1v-.1h.2s.1 0 .1.1v.2c0 .1.1.1 0 .2h-.1s-.1 0-.1.1c0 0 0 .1.1.1h.2l.1-.1c.1-.1.1-.1.1-.2v-.5s-.1-.1 0-.1v-.1s0-.1.1-.1H44.9V4.8h-.2l-.1-.1h-.1s-.1 0-.1-.1h-.6v.1h-.2l.1.1v.1s0 .1.1.1h.1c.1 0 .1 0 .2-.1h.2l.1.1v.1h-.2s-.1 0-.1.1v.1h.2l.1.1v.4h-.1v-.1c-.6 0-.6 0-.7-.1zm4.5 13.7v.1l-.1.1v.2h-.2v.2l.1.1.1.1h.2l.1-.1v-.1h.2c.1 0 .1 0 .2.1h.4c.1 0 .1-.1.1-.1-.1-.1-.1-.1-.2-.1s-.1-.1-.2-.1h-.5s-.1 0-.1-.1l-.1-.1s0-.1.1-.1.1-.1.2-.1v-.1h-.2s0-.1-.1-.1c0-.1-.1-.1-.2-.2.1-.6.1-.7.1-.8 0 0-.1 0-.1.1V18.5c0 .1 0 .1.1.2l.1.1.1.1v.1s0 .1-.1.1l-.2.2-.1.1v.1s0 .1.1.1h.1c-.1-.3 0-.3.1-.3-.1-.1 0-.1 0 0 0-.1 0 0 0 0zm-4.5-3.5h.5c.1 0 .1.1.1.1v-.1s.1 0 .1-.1v-.1h.4c0-.1.1-.1.1-.2v-.1c-.1 0-.1-.1-.2-.1H44.3v-.1h.4V15c-.1-.1-.2-.1-.3-.1h-.6v.2s0 .1.1.1l.1.1c.1.1.1.2.2.3v.1c0 .1-.1.1-.2.1s-.1-.1-.1-.1v-.2h-.1l-.1.1h-.2c-.1.1-.1.1-.2.1v.2h.2l.1-.1c-.1-.1-.1-.1 0 0-.1 0 0 0 0 0zM43 7.6s.1 0 0 0h.2c.1 0 .1.1.2.1h.4c.1 0 .2 0 .2-.1 0 0 .1 0 .1-.1V7l.1-.1h.4V6.6h-.1c0-.1 0-.1-.1-.2v.2c0 .1-.1.1-.2.2 0 0-.1 0-.1.1V7.2s-.1 0-.1.1c-.1.1-.2.2-.3.2h-.2l-.1-.1h-.5v.2l.1.1c-.2-.1-.1-.1 0-.1zm1.9 11.8c-.1 0-.2-.1-.3-.2 0-.1-.1-.1-.1-.1h-.2v.2H44s0-.1-.1-.1h-.1l-.1.1v.4h.1s0-.1.1-.1l.1-.1h.1s0 .1.1.1l.1-.1s0-.1.1-.1v-.1h.2s0 .1.1.1h.6-.4zM45 21l.1.1s.1 0 .1-.1c0 0 0-.1-.1-.1l-.1-.1v-.2h-.1l-.1.1h-.1c-.1 0-.2-.1-.3-.1v-.2c-.1 0-.1.1-.1.1v.1s0 .1.1.1v.2l.1.1c.1 0 .1 0 .2.1h.1s.1 0 .1-.1c0 0 0-.1.1-.1-.1.1 0 .1 0 .1zm-2 .5c0-.1 0-.1 0 0-.1-.1-.1-.1-.1-.2h-.1c-.1 0-.1.1-.1.1 0 .1 0 .1.1.2h.1l.1.1v.2h.1s0-.1.1-.1l.1-.1h.1c.1.1.1.1.2.1h.1l.1-.1v-.1c-.1 0-.2-.1-.2-.1h-.1s-.1 0-.1.1c-.2-.1-.3-.1-.4-.1.1 0 .1 0 0 0zm0-7.9s0 .1.1.2c0 .1.1.1.1.1h.1V13.6h.1c.1 0 .1-.1.2-.1s.1 0 .1-.1V13.1c-.1 0-.1 0-.1-.1h-.1c-.1.1-.1.1-.1.3h-.1c-.1 0-.1 0-.2.1l-.1.1v.1zm5.1-.2c0-.1-.1-.1 0 0h-.7v.1H47.7V14.4s0 .1.1.1h.1c.1 0 .1-.1.1-.1V14h-.1v-.1s0-.1.1-.1l.1-.1v-.3zm-4.8 2.8c0-.1-.1-.1-.1-.2s-.1-.1-.2-.2h-.1l-.1.1V16.2c.1.1.1.1.1.3 0 0 .1 0 .1.1h.1c.1 0 .1 0 .2-.1V16.2zm7.3 13H50.9l.1-.1H51.3V29H51c-.1 0-.1 0-.2.1h-.4c-.1 0-.1.1-.1.1H50.6zm-4.8-9.8c0 .1.1.2 0 .3l-.1.1v.2H46v-.1l-.1-.1s0-.1-.1-.1v-.1s0-.1.1-.1h.1v-.1c-.1 0-.1 0-.2-.1h-.1l-.1.1c.2-.2.2-.1.2 0zM44.5 18h-.2s0 .1.1.1c0 0 0 .1.1.1v.1c0 .1-.1.1-.1.1-.1 0-.1-.1-.1-.1s-.1 0-.1.1c0 0 0 .1.1.1h.2l.1.1v.2s0 .1.1.1c0-.1.1-.2.1-.3-.3-.2-.3-.3-.3-.6 0 .1 0 .1 0 0 0 .1 0 .1 0 0zm-.6-13.7h.4s0 .1.1.1h.1l.1-.1V4h-.1v-.1l-.1.1v.1c-.1 0-.1.1-.1.1-.4-.1-.4 0-.4.1 0-.1 0-.1 0 0zm-.7 16.4c-.1 0-.1 0-.2-.1-.1 0-.2-.1-.3 0 0 0-.1.1 0 .2 0 0 0 .1.1.1h.4s.1 0 .1.1v.1h-.1v.1h.1v-.1c.1 0 .1-.1.2-.1v-.1c-.2-.1-.2-.2-.3-.2zm1.2-13.3c0-.1 0-.1 0 0v-.2h-.1v.4h.1c.1 0 .1.1.2.1v.1H44.9s.1 0 .1-.1c0 0-.1 0-.1-.1V7.3c-.3.2-.4.1-.5.1zm7.1 21.5s0 .1 0 0v.1h.1c.1 0 .2.1.4.1h.2c.1 0 .1-.1.1-.1s0-.1-.1-.1H51.9l-.1.1h-.1c-.1-.1-.2-.1-.2-.1zm-4.3-11.6c0-.1-.1-.1-.1-.2H47l-.1.1v.5s0 .1.1.1h.1v-.5c.1.1.1 0 .1 0zM44.1 21h-.4V21.7h.1c.1 0 .1-.1.1-.1v-.2l-.1-.1v-.1h.1v.1l.1.1h.1v-.1c.2-.1.1-.2 0-.3.1.1.1 0 0 0zm3.4-8.3s.1 0 0 0l.1-.1v-.1h-.1l-.1.1c-.1.1-.1.2-.1.3 0 0 .1 0 .1.1l.1.1c0 .1 0 .1.1.1l.1.1h.1c.1 0 .1-.1.2-.1v-.1H47.7s-.1 0-.1-.1 0-.2-.1-.3c0 .1 0 .1 0 0 0 .1 0 0 0 0zm-3.6-4.4h.2l.1.1h.1v-.1l.1-.1s0-.1.1-.1V7.8h-.1s0 .1-.1.1V8h-.1l-.1-.1H44s-.1 0-.1.1c.1.2.1.2 0 .3zm.7 5.5c.1 0 .1 0 .1-.1 0 0 0-.1-.1-.1l-.1-.1s0-.1-.1-.1l-.1-.1s-.1 0-.1-.1c0 0 0-.1-.1-.1L44 13h-.1v.4l.1.1h.1c.4.1.4.2.5.3-.1-.1 0-.1 0 0zm-.5-3.8s0 .1 0 0c.1.1.1.1.2.1h.1V10c.1 0 .1-.1.2-.1 0 0 .1-.1 0-.1h-.2c-.1 0-.2.1-.3.2zm-1.5 5.2s.1 0 0 0h.4s0 .1.1.1h.1c.1 0 .1 0 .2-.1 0 0 0-.1.1-.1V15H43.2l-.1-.1H43c-.1 0-.2 0-.2.1l-.2.2c0-.1 0-.1 0 0zm2.3 3h-.1v.2h.1c.1 0 .1-.1.2-.2V17.9s0-.1-.1-.1h-.1c.1.1.1.2 0 .4.1-.1.1-.1 0 0zm-1.3-7.5c-.1 0-.1.1-.2.2l.1.1h.1c.1 0 .1-.1.2-.1v-.1l-.1-.1c0-.1 0-.1-.1 0zm1.5 9.1c-.1 0-.1 0 0 0-.1 0-.1.1 0 0l-.1.1s-.1 0-.1-.1h-.1v.2l.1.1H45.2v-.2c-.1 0-.1 0-.1-.1zm3.2 2v.3c0 .1 0 .1.1.1h.2s.1 0 .1-.1 0-.1-.1-.2l-.1-.1h-.2zM43 3.7c0-.1 0-.1-.1-.1s-.1 0-.2-.1h-.1v.2H42.9v.1s0 .1.1.1h.2c-.1 0-.1 0-.2-.2.1.1 0 .1 0 0zm6.5 21.5c-.1 0-.1 0-.2-.1 0 0-.1-.1-.1-.2h-.1c0 .1 0 .1.1.2 0 0 .1.1.1.2H49.6c-.1 0-.1-.1-.1-.1zM43.1 7.8c-.1 0-.1 0 0 0l-.1.1V8c.1.1.1.1.2.1h.1s.1 0 .1-.1v-.2h-.2c0 .1 0 0-.1 0zm8.3-3.7c0 .1 0 .1.1.1s.1.1.2.1.1 0 .1-.1v-.1h-.1c-.1-.1-.1-.1-.3 0 .1 0 0 0 0 0zm-8.6 19.5h-.2v.2l.1.1h.2s.1 0 .1-.1v-.1s-.1 0-.2-.1zm1.4-20.2c0-.1 0-.1 0 0 0-.1.1-.1.1-.1v-.1h-.2s-.1 0-.1.1c0 0 0 .1-.1.1v.1s.1 0 .1.1c0 0 .1 0 .1.1 0 0 .1 0 .1-.1v-.2zm.8 18.3h-.1v.2s0 .1.1.1h.1l.1-.1v-.2H45c.1 0 0 0 0 0zm-2.2-10.3c-.1 0-.1 0-.1.1V11.8s.1 0 .1.1c0 0 0 .1.1.1h.1l-.1-.1c-.1-.3-.1-.4-.1-.5 0 .1 0 0 0 0zM44 9.5c0-.1 0-.1-.1-.2 0-.1-.1-.1-.1-.2h-.1v.1c.1.1.1.2.2.3 0 .1 0 .1.1 0 0 .1 0 .1 0 0zm3.7 7.1c-.1 0-.1-.1-.1-.1h-.1v.1s.1.1.1.2v.1s.1 0 .1.1c0 0 0 .1.1.1h.1c-.1-.3-.2-.4-.2-.5zM44 14.1c0-.1 0-.2-.1-.3 0 0-.1-.1-.1 0 0 0-.1.1 0 .2 0 0 0 .1.1.1V14.4h.1c.1-.2.1-.2 0-.3zm-.3.2-.2.2-.1.1s0 .1.1.1c0-.1.1-.1.2-.2s.1-.2 0-.2zm6.3 9.1h-.1c-.1 0-.1 0-.1.1v.1l.1.1h.1c.1 0 .1-.1.2-.1v-.1c0-.1-.1-.1-.2-.1.1 0 0 0 0 0zm-.6 3.3s.1 0 .2-.1l-.1-.1h-.3c0 .1 0 .2.1.2h.1zm-4.5-4.3c-.1 0-.1 0 0 0h-.1v.1s0 .1.1.1V22.9l.1-.1s.1 0 .1-.1v-.1c-.2 0-.2-.1-.2-.2zM43 10.6v-.1c0-.1-.1-.1-.2-.1-.1.1-.1.1-.1.2v.2c.1-.1.2-.2.3-.2zm3.5 5.7h-.4v.2H46.4c.1-.1.1-.1.1-.2 0 .1 0 0 0 0zm1.4 5.3c0-.1.1-.1.1-.1s-.1 0-.1-.1h-.2V21.7s0 .1.1.1c.1-.1.1-.2.1-.2zm2.6 5.4c.1.2.2.3.3.3.1 0 .1 0 .1-.1v-.1h-.1c-.1-.1-.2-.1-.3-.1zm-.2-2.9c0-.1 0-.1 0 0l-.1-.1c-.1 0-.1.1-.1.2v.1s0 .1.1.1h.1V24.1zm-.5.9s0 .1 0 0c0 .1 0 .1 0 0 0 .1 0 .1 0 0-.1.1-.1.1-.1.2v.2h.1s.1 0 .1-.1v-.1s0-.1-.1-.2c.1.1.1 0 0 0zM42.1 5c.1 0 .1-.1.1-.1s0-.1.1-.1v-.2h-.1c0 .1-.1.1-.1.1-.1.2-.1.2 0 .3-.1-.1-.1 0 0 0zm8.3 25.5c.1 0 .1-.1 0 0 0-.2-.2-.3-.3-.3 0 0-.1 0-.1.1v.1s0 .1.1.1H50.4zm-2-6.3c.1 0 .1 0 .2-.1 0-.1 0-.2-.1-.3-.1.2-.1.3-.1.4zm.5-18.7c.1 0 .1 0 0 0 .1.1.2 0 .4 0v-.1l-.1-.1h-.1c-.1 0-.1 0-.2.2.1-.1 0-.1 0 0zM43 18.2s-.1.1 0 0c-.1.1-.1.2-.1.2 0 .1 0 .1.1.2 0 0 .1-.1 0-.2.1 0 .1-.1 0-.2.1 0 0 0 0 0zm7.6-13.6c.1 0 .1 0 0 0h.2s0-.1-.1-.1H50.4s-.1.1 0 .1h.2zm-6 11.5c.1-.1.1-.2.1-.3 0 0 0-.1-.1-.1 0 0-.1 0-.1.1v.2s0 .1.1.1zm1.9-.2c0-.1 0-.1 0 0v-.1h-.1c-.1 0-.1.1-.2.1l-.1.1v.1h.1c.1-.1.2-.2.3-.2zm.6-2.7H47s-.1 0-.1.1v.1H47.2c0-.1-.1-.1-.1-.2zm2.8 17.2c0-.1 0-.1 0 0 0-.1 0-.2-.1-.2h-.2c0 .1 0 .1.1.2h.2zm-7.1-11.1c0 .1 0 .1.1.1h.1l.1-.1c0-.1 0-.1-.1-.1h-.1l-.1.1zm.7-9.3v-.1s0-.1-.1-.1h-.1v.2s0 .1.1.1c-.1 0-.1 0 .1-.1-.1.1-.1.1 0 0-.1.1 0 .1 0 0zm1.6-6V4.3c.1 0 .1-.1.1-.1v-.1s0-.1-.1-.1c.1-.1.1 0 0 0zm3.4 16.4s0 .1 0 0l.1.1h.1v-.1c0-.1 0-.1-.1-.2h-.1v.2zm-5.1 4.8h.3v-.1s0-.1-.1-.1h-.1l-.1.2c0-.1 0-.1 0 0zm0-5.9c0-.1.1-.1.1-.1v-.1s-.1-.1-.1 0c0 0-.1.1-.1.2v.1c0-.1.1-.1.1-.1zm-.5-10.8c.1 0 .1 0 0 0 .1 0 .1 0 0 0l.1-.1v-.1h-.2v.1l.1.1zm2.8-5.3c0 .1 0 .1 0 0v.2s0 .1.1 0l.1-.1v-.1h-.2zm-.3 1.5c-.1 0-.2 0-.2.1v.1h.1c0-.1.1-.1.1-.2.1 0 .1 0 0 0 .1 0 0 0 0 0zm4.5 22.8c0 .1.1.1.1.1h.1s.1 0 .1-.1c0 0 0-.1-.1-.1 0 0-.1 0-.1-.1h-.1v.2c0-.1 0-.1 0 0 0-.1 0-.1 0 0zm-.5-21.3c0-.1 0-.1 0 0l-.1-.1c0 .1-.1.1-.1.2v.1c.1 0 .2-.1.2-.2zm-1.6 23.9h-.1s0 .1-.1.1v.2h.2c0-.2.1-.2 0-.3zm-3.7-13.9c.1 0 .1.1 0 0 0 .1.1.2.1.2s.1 0 .1-.1v-.1s0-.1-.1-.1l-.1.1c.1-.1.1 0 0 0zm3.7 13.2c.1 0 .1 0 0 0h.1s.1-.1.1-.2v-.1h-.1c0 .1 0 .2-.1.3 0-.1 0 0 0 0zM44.4 8.6c.1.1.1.1 0 0h.2s.1 0 .1-.1v-.1s-.1-.1-.1 0c-.1.1-.2.1-.2.2zm-.4 4.8c0-.1 0-.1-.1-.1l-.1.1s-.1 0-.1.1h.1l.2-.1c-.1 0-.1 0 0 0zm5.9 8.9s.1.1.2.1h.1v-.1s-.1-.1-.2-.1-.1 0-.1.1c0-.1 0 0 0 0zm-7.2 1.9s0 .1-.1.1v.2h.1v-.2c.1-.1.1-.1 0-.1.1-.1.1 0 0 0zm1.9-18.1h.1l.1-.1h-.1l-.1.1c0-.1 0 0 0 0zm3.3 9.7s.1.1.1 0v-.1s0-.1-.1-.1h-.1l-.1.1c.1 0 .1.1.2.1zM45.3 3.1c0-.1-.1-.1-.1-.2h-.1v.2c.1.1.1.1.2 0zm4.1 1.5-.1.1c0 .1 0 .1.1.1h.1s.1 0 .1-.1c-.1 0-.1-.1-.2-.1zm-5.7 15.7h-.1l-.1.1v.1c.1 0 .1-.1.1-.1.2 0 .2 0 .1-.1.1.1 0 .1 0 0zm3.4-1.5c-.1 0-.1.1 0 0 0 .1 0 .2.1.2 0 0 .1 0 .1-.1v-.1h-.2zm-3.2 1.8s0 .1-.1.1v.1s.1 0 .1.1c.1-.1.1-.2 0-.3.1 0 0 0 0 0zm.5-6.8c0-.1 0-.1-.1-.1h-.1v.1l.1.1c0 .1.1 0 .1-.1 0 .1 0 .1 0 0zm5.2 8.3s-.1 0 0 0h-.1v.1s0 .1.1.1h.1c-.1-.1-.1-.1-.1-.2 0 .1 0 0 0 0zM42.6 8h.1l-.1-.1h-.1s-.1 0-.1.1c.2-.1.2-.1.2 0 0-.1 0 0 0 0zm6.2 13.4c0-.1 0-.1 0 0v-.2h-.2v.1s.1.1.2.1c-.1 0 0 0 0 0zM41.9 3.5c-.1 0-.1.1 0 0-.1.1-.1.1 0 0l-.1.1h.2v-.1h-.1zm.9 13.4c-.1 0-.1 0 0 0-.1 0-.1.1-.1.1s0 .1.1.1h.1c-.1 0-.1 0-.1-.2 0 .1 0 .1 0 0zm6.7 4v-.1h-.1s-.1 0-.1.1v.1c.1 0 .1 0 .2-.1-.1.1 0 0 0 0zM42.8 9.6c0 .1.1.1 0 0 .1.1.2.1.2.1v-.1s-.1-.1-.2 0c.1 0 .1 0 0 0zm8.8 20.6c0 .1.1.1.1.1s.1 0 .1-.1v-.1h-.1l-.1.1zm-3.3-13.3c-.1 0-.1.1-.1.1s.1 0 .1.1h.1c0-.1 0-.1-.1-.2.1 0 .1 0 0 0zm.6-12.4s-.1 0 0 0c-.1.1-.1.1 0 .2h.1s.1-.1 0-.1c0-.1-.1-.1-.1-.1zM43.7 20v-.1h-.1v.1c0 .1 0 .1.1 0zm4.3 3.2v.2h.1c.1-.2.1-.2-.1-.2.1 0 .1 0 0 0 .1 0 .1 0 0 0zm-3.1-11.9h-.2c.1.1.1.1.2 0 .1.1.1 0 0 0zm-.8-.2v.1h.1s.1 0 .1-.1V11c-.1 0-.2 0-.2.1 0-.1 0-.1 0 0zM52.6 29s0 .1 0 0c.1.1.1.1.2.1 0 0 .1 0 .1-.1v-.1c-.1.1-.2.1-.3.1zm-1.2.6s0 .1 0 0l.1.1h.1v-.1c-.1 0-.1-.1-.2 0v-.1.1c0-.1 0 0 0 0zm-6.9-12c0-.1-.1-.1-.1-.1v.1c0 .1 0 .1.1.1-.1 0-.1 0 0-.1-.1.1 0 .1 0 0zm5.3-12.1h-.2v.1l.1.1h.1v-.2zm-5.1 5.2c-.1 0-.1 0 0 0h-.2v.1h.1c.1 0 .1 0 .1-.1zM48 22.3h-.1v.1h.2s0-.1-.1-.1zM45.4 20s0 .1 0 0c0 .1.1.1.1.1h.1V20c0-.1-.1-.1-.2 0 0-.1 0-.1 0 0zM43 12.9v-.1h-.1s-.1 0-.1.1v.1c.1-.1.1-.1.2-.1-.1 0-.1 0 0 0zm6.4 11.2s0 .1 0 0c-.1.1-.1.2-.1.2h.1c.1 0 .1 0 0-.2.1.1.1.1 0 0 .1 0 .1 0 0 0zm-7-2.9c0 .1 0 .1 0 0v.1s.1 0 .1-.1c0 0 0-.1-.1-.1v.1zm6.1 7.8h.1v-.1s-.1 0-.1-.1c-.1.1-.1.1 0 .2-.1-.1 0 0 0 0zm2.6-1.2H51v.1h.1c0 .1.1 0 0-.1.1.1 0 .1 0 0zm-8.5-15.7V12l-.1-.1s-.1 0-.1.1c0 0 0 .1.1.1 0 0 .1.1.1 0zm8 14.3.1-.1-.1-.1c-.1.1-.1.1 0 .2-.1 0-.1 0 0 0zm-6-1.8.1-.1v-.1h-.1s0 .1-.1.1c0 .1 0 .1.1.1zm4.5 5.5c0-.1 0-.1 0 0 0-.1-.1-.1-.1-.1h-.1l.1.1h.1zM45 3.5c.1 0 .1 0 .1-.1v-.1h-.2c.1.1.1.1.1.2zm1 13.9c0 .1 0 .1 0 0 0 .1 0 .1 0 0v.1c.2 0 .2-.1 0-.1.1 0 .1 0 0 0 .1-.1.1-.1 0 0 .1-.1.1 0 0 0zm1.6-14.3c.1-.1.1-.1 0 0 .1-.1.1-.1 0 0V3s0-.1-.1-.1c0 0 0 .1.1.2zM43 12c-.1 0-.1.1-.1.1s0 .1.1.1c0-.1.1-.1 0-.2.1 0 .1 0 0 0zm4.9 3.4c0-.1-.1-.1-.1-.1v.1c.1.1.1.1.1 0 0 .1 0 0 0 0zm-4.2-7.2c-.1 0-.1 0 0 0-.1 0-.1 0 0 0-.1-.1-.1 0-.1 0v.1h.1c-.1 0 0 0 0-.1 0 .1 0 .1 0 0zm.1 9.9c-.1.1-.1.1 0 .1h.1s.1 0 .1-.1c-.1.1-.1.1-.2 0 .1.1.1 0 0 0 .1 0 .1 0 0 0zm4 2.2h.1s.1 0 .1-.1 0-.1-.1-.1c-.1.1-.1.1-.1.2zm-4.2-6.5c-.1 0-.1 0 0 0l-.1.1h.1c.1 0 .1 0 .1-.1 0 .1-.1 0-.1 0zm5.5-7.3c0-.1 0-.1 0 0-.1-.1-.1-.1-.2 0v.1c.1-.1.1-.1.2-.1-.1 0 0 0 0 0zm-4.6.1s.1 0 0 0h.1v-.1h-.1v.1zm-1.2 2.7s-.1 0 0 0v.1h.1l-.1-.1zm2.2 12.3h-.2v.1c.1 0 .2 0 .2-.1zm4.3 5.2c0 .1 0 .1.1.2h.1v-.1c-.1-.1-.1-.1-.2-.1zm-4.9-5.4c-.1-.1-.1-.1-.2 0 0 0 0 .1.1.1 0 0 .1 0 .1-.1 0 .1 0 0 0 0zM43 12.5v-.1h-.2c.1 0 .1 0 .2.1zm-.5-1.4s.1 0 0 0c.1 0 .1-.1.1-.1-.1-.1-.1-.1-.1.1 0-.1 0-.1 0 0 0-.1 0-.1 0 0zM50 28.4c-.1.1 0 .1 0 .1.1.1.1 0 0-.1.1.1.1.1 0 0 .1 0 .1 0 0 0zm-7.5-6.3c-.1 0-.1.1-.1.1v.1c.2-.1.2-.1.1-.2.1 0 .1 0 0 0 .1 0 .1 0 0 0zm2.1-16.5c.1 0 .1 0 0 0h.1s0-.1-.1-.1c.1 0 0 0 0 .1 0-.1 0-.1 0 0zm-2.1 14.5c-.1.1-.1.1 0 0v.1h.1s.1-.1 0-.1c0 .1 0 .1-.1 0zm1.4-1.3s-.1 0 0 0h-.1v.1h.1v-.1c0 .1 0 0 0 0zm6.8 9.5c0-.1 0-.1 0 0-.1-.1-.1-.1-.1 0v.1l.1-.1c0 .1 0 0 0 0zM43.2 5.4l.1-.1h-.1c-.1 0-.1 0 0 .1-.1 0-.1 0 0 0-.1 0-.1 0 0 0zm7-.9h-.1v.1l.1-.1c0 .1 0 .1 0 0zm-1 16.8h.1-.1c0-.1 0 0 0 0zm.1.7v-.1h-.1v.1c0 .1.1.1.1 0zM43.1 9.3v-.1H43v.1h.1c-.1 0-.1 0 0 0zm5.5 20.8c-.1 0-.1 0 0 0h-.1.1c0 .1 0 .1 0 0zm-5.2-12.5s-.1 0 0 0c-.1 0-.1 0 0 0-.1 0-.1.1-.1.1h.1v-.1c0 .1 0 .1 0 0zm3.5-3.4c-.1-.1-.1-.1 0 0l-.1-.1v.1c0 .1 0 .1.1 0-.1.1-.1.1 0 0 0 .1 0 0 0 0zm1.5 11.9h.1c.1-.1.1-.1-.1 0 .1-.1.1-.1 0 0 0-.1 0-.1 0 0zM42.8 19h-.2v.1h.1c.1 0 .1 0 .1-.1 0 .1 0 0 0 0zm.8-.3c.1.1.1 0 .1 0 0-.1 0-.1-.1 0 0-.1 0-.1 0 0zm-.9-10.2c-.1 0-.1 0 0 0-.1 0-.1 0-.1.1 0 0 .1 0 .1-.1zm4 10.6c.1.1.1 0 0 0h.1V19h-.1v.1zm-.5-2.3c0-.1 0-.1 0 0-.1-.1-.1-.1 0 0-.1-.1-.1 0-.1 0h.1c-.1.1-.1.1 0 0zm4.3-13.7s0 .1 0 0c0 .1 0 .1 0 0 .1.1.2.1.2 0V3l-.2.1zm-7.4 13.7c-.1-.1-.1-.1-.1 0v.1s.1 0 .1-.1zm5.8 9.4c.1-.1.1-.1 0 0V26h-.1s0 .1.1.2c-.1-.1-.1-.1 0 0zm1 1.6c0-.1 0-.1 0 0v-.1s-.1 0-.1.1h.1zm-1-3.1c.1 0 .1 0 0 0 .1-.1 0-.1 0-.1h-.1l.1.1zm-4-17.9c.1 0 .1 0 0 0 .1 0 .1-.1.1-.1-.1 0-.1 0-.1.1zm-.7 15.8s-.1 0 0 0c-.1 0-.1 0 0 0v.1h.1c-.1 0-.1 0-.1-.1zm4.1 2v.1h.1c0 .1 0 0-.1-.1.1.1.1.1 0 0zm-4.8-14.2c0-.1 0-.1 0 0l-.1-.1v.1s.1.1.1 0c0 .1 0 0 0 0zm.5 10v.1c.1 0 .1-.1 0-.1.1 0 .1 0 0 0zm2.2-4.9s.1 0 0 0c.1 0 .1 0 0 0 .1.1.1 0 .1 0 0-.1 0-.1-.1 0 .1-.1 0-.1 0 0 0-.1 0-.1 0 0zm3 6.1v-.1c-.1 0-.1.1 0 .1-.1 0-.1 0 0 0-.1.1-.1.1 0 0-.1.1-.1 0 0 0zm-5.3-9.8s0-.1 0 0c0-.1 0-.1 0 0-.1-.1-.1-.1-.1 0h.1zm.7-.7c-.1 0-.1.1 0 0-.1.1-.1.1 0 0 0 .1 0 .1 0 0 0 .1 0 .1 0 0zm5.3 14.8c0 .1-.1.1 0 0-.1.1 0 .1 0 .1.1 0 .1 0 0-.1zm-4-9.1c0 .1 0 .1 0 0 0 .1 0 .1 0 0 0 .1 0 .1.1.1l-.1-.1c.1.1.1.1 0 0zm-2.4 4.1s-.1 0 0 0v.1h.1c0-.1 0-.1-.1-.1zm1.5 3.4s0-.1 0 0c0-.1 0-.1 0 0 0-.1 0-.1 0 0-.1-.1-.1-.1 0 0-.1 0-.1 0 0 0zm-1.8.9v.1h.1c0-.1 0-.1-.1-.1zm6.7-20s-.1 0 0 0c-.1.1 0 .1 0 0v.1s.1 0 0-.1c.1 0 0 0 0 0zm.9 23.6h-.1c0 .1 0 .1.1 0 0 .1 0 0 0 0zm1 .9c.1 0 .1 0 0 0 .1-.1.1-.1 0 0 0-.1 0-.1 0 0zM42.1 5.3c0-.1 0-.1 0 0-.1 0-.1 0 0 0zm6 5s.1 0 0 0c.1 0 .1 0 0 0 .1-.1 0-.1 0 0 0-.1 0-.1 0 0zM48 3.4s-.1 0 0 0c-.1 0-.1 0 0 0-.1 0-.1 0 0 0zm2 24.7s0-.1 0 0c-.1 0-.1 0 0 0-.1 0-.1 0 0 0zm-2.4-7.9s0 .1 0 0c0 .1 0 .1 0 0 .1.1.1.1 0 0 .1 0 0 0 0 0zm-3.2 1.3s-.1 0 0 0c-.1 0-.1 0 0 0-.1 0-.1 0 0 0-.1 0-.1.1 0 0zm4.3-2.5s-.1 0 0 0c-.1 0-.1 0 0 0zm-5.4-6c0-.1 0-.1 0 0-.1-.1-.1-.1 0 0-.1-.1-.1-.1 0 0-.1 0-.1 0 0 0-.1 0 0 0 0 0zm4.8 7.6s0-.1 0 0c0-.1 0-.1 0 0 0-.1 0-.1 0 0zm-4.3 5c.1 0 .1 0 0 0 0-.1 0-.1 0 0 0-.1 0 0 0 0zm4.2 3.3c0-.1 0-.1 0 0 0-.1 0-.1 0 0zm-2.3-8.2c-.1 0-.1 0 0 0-.1 0-.1.1 0 0-.1.1 0 .1 0 0 0 .1 0 0 0 0zM31.9 29.3v1.4c0 .1 0 .1-.1.1h-4.4c-.2 0-.3-.1-.5-.2V29.2c0-.1 0-.1.1-.2V28.7c0-.1.1-.1.1-.1h.2l.1.1h.1l.1-.1h.2c.1 0 .3-.1.4-.2l.3-.3.1-.1s0-.1.1-.1c0 0 0-.1.1-.1v-2c.1-.2.1-.4.1-.5V23c0-.1 0-.2.1-.2 0-.1.1-.2.1-.3v-.2c0-.1 0-.2.1-.3V20.8c0-.1 0-.2.1-.3v-.8c0-.1 0-.2.1-.4 0-.2.1-.3.1-.5v-1.2c0-.1 0-.2.1-.2v-.2s-.1-.1 0-.2V16.3c0-.1.1-.2.1-.4V15.3c0-.1 0-.2.1-.2V9.3c0-.1.1-.1.1-.2v-.4c0-.2.1-.4 0-.5v-.1c0-.1 0-.2.1-.3V5.7s0-.1.1-.1v-.7c0-.1.1-.1.1-.2v-.2c.1-.1.1-.1.2-.1v-.1s0-.1-.1-.1h.4l.1.1s0 .1.1.1v.2s0 .1.1.1H31.3c.1 0 .1.1.2.1h.2s.1 0 .1-.1v-.2c.2.5.3.5.3.4h.2c.1 0 .1 0 .1-.1v-.1s.1-.1.1 0h.1c.1 0 .1 0 .2.1v.1s.1.1.2 0c.1 0 .1-.1.1-.1h.2s.1 0 .1.1V5c0 .1 0 .3.1.4 0 .1 0 .2.1.3v.2c0 .1 0 .3.1.4 0 .2.1.4.1.6 0 .1 0 .2.1.3.1 0 .1 0 .1.1s.1.3.1.4c0 .2.1.4.1.5 0 .2.1.3.1.5v.8c0 .1 0 .2.1.3v.3c0 .3.1.6.1.9v.9c0 .1 0 .1.1.2v.1c0 .2.1.4.1.6V14.1c0 .1.1.3.1.4 0 .2 0 .4.1.6v.3c0 .3.1.6.1.8v.3c0 .1 0 .3.1.4 0 .1.1.3.1.5v.3c0 .2 0 .3.1.5 0 .2.1.3.1.5 0 .1 0 .3.1.4 0 .2 0 .3.1.5 0 .1 0 .3.1.4 0 .2 0 .3.1.5v.3c0 .2.1.4.1.6 0 .2.1.4.1.7 0 .1 0 .3.1.4 0 .1 0 .3.1.4v.1c0 .2 0 .4.1.6v.2c0 .2 0 .3.1.5 0 .1 0 .2.1.3v.4c0 .2 0 .3.1.5 0 .1 0 .2.1.3 0 .2.1.3.1.5s.1.3.1.5c0 .1.1.2.1.2.1.1.1.3.2.4v.1c0 .1.1.1.1.1l.1.1c.1.1.2.1.3.2H38.5l.1.1c.1.1.2.3.2.4 0 .1.1.2.1.3v1.1s0 .1-.1.1l-.1.1c-.1 0-.2.1-.2.1H32.6c-.1 0-.1-.1-.1-.1l-.1-.1c0-.1-.1-.1-.1-.2V28.3c0-.1 0-.1.1-.1s.1-.1.2-.1h.1s.1 0 .1-.1H33.1l.1-.1c.1-.1.2-.3.3-.5.1-.1.1-.3.1-.4V24.5l.1-.1v-.1h-.1c-.1.1-.1.1-.3 0h-.4s0-.1-.1-.1h-.1s-.1 0-.1.1H31c-.1 0-.2 0-.2.1-.1 0-.1.1-.1.1v.2c0 .2 0 .4-.1.6V27c0 .2 0 .3.1.5l.1.1c0 .1.1.1.2.1.1.1.2.1.3.2h.4c.1 0 .2 0 .3.1l.1.1v.1c-.3.9-.2 1-.2 1.1zm-1-10.2v1.2c0 .2 0 .4-.1.6 0 .2 0 .4-.1.7v1c0 .1.1.2.2.2H33c.1 0 .1-.1.1-.1v-.4c0-.1-.1-.1-.1-.2v-.5c0-.1-.1-.3-.1-.4v-1c0-.2 0-.3-.1-.5 0-.2-.1-.4-.1-.5 0-.1 0-.2-.1-.4 0-.1 0-.3-.1-.4V18c0-.1 0-.3-.1-.4 0-.2 0-.3-.1-.5V17c0-.1 0-.3-.1-.4v-.3c0-.1 0-.3-.1-.4V15c0-.1-.1-.2-.1-.4v-.2c0-.1 0-.2-.1-.3V14c0-.1-.1-.2 0-.4V13.3c0-.1 0-.1-.1-.2 0-.1 0-.1-.1-.2v-.2s0-.1.1-.1v-.1h-.2c0 .1-.1.1-.2.1 0 0 0 .1-.1.1v2.4c0 .2 0 .3-.1.5V16.6c0 .2 0 .3-.1.5v.7c0 .2-.1.4-.1.6v.6c0 .1 0 .2-.1.3v-.2zm3.6 7.2H34.8c.1 0 .1 0 .1-.1 0 0 0-.1-.1-.1h-.4s0 .1.1.2zm-3-19.8v.2l.1.1h.1s.1 0 .1-.1v-.1s0-.1-.1-.1h-.2zm1.3 17.8h-.1c0 .1.1.1.1.1.1 0 .1 0 .2-.1v-.1c-.1.1-.2.1-.2.1zm1.5-7.9s0-.1 0 0v-.1h-.1v.2h.1v-.1zm-.6 12.4c0-.1 0-.1 0 0 .1-.1 0-.2 0-.2h-.1l-.1.1s0 .1.1.1h.1zm.9-3.7c0-.1 0-.1-.1-.1h-.1s-.1 0-.1.1c0 0 0 .1.1.1.1-.1.1-.1.2-.1-.1 0 0 0 0 0zm-4-19.7c.1 0 .1 0 0 0l.1-.1s0-.1-.1-.1h-.1c.1.1.1.2.1.2zm5.1 21.7c.1 0 .1-.1.1-.1s-.1-.1-.1 0h-.1l.1.1c-.1-.1 0 0 0 0zm-.2 2.8c0-.1-.1-.1-.2-.1 0 .1.1.1.2.1 0 .1 0 .1 0 0 0 .1 0 0 0 0zm-2-.4-.1.1h.1c.1 0 .1 0 0-.1.1 0 .1 0 0 0zm1.1-.7c0-.1 0-.1 0 0v-.1h-.1v.1c0-.1 0-.1.1 0-.1 0 0 0 0 0zM32.1 6c.1 0 .1 0 0 0l.1-.1h-.1s-.1 0 0 .1zm0 18.1h.1V24c-.1 0-.2 0-.1.1-.1 0-.1 0 0 0zm2.1 5.1c.1 0 .1 0 0 0 .1-.1.1-.1.1-.2h-.1s-.1 0-.1.1c.1 0 .1.1.1.1zm-.1.7s-.1 0 0 0H34l-.1.1v.1h.1c0-.1.1-.2.1-.2zm.2-1.2c-.1 0-.1 0 0 0v.1h.1l-.1-.1zm-1.1.7s0-.1 0 0c0-.1 0-.1 0 0 0-.1 0-.1 0 0 0-.2-.1-.2 0 0-.1-.1-.1-.1 0 0-.1 0-.1 0 0 0zm-1.8-22v-.1h-.1l.1.1c-.1 0 0 0 0 0zm-.2-2h-.1v.1l.1-.1c0 .1 0 .1 0 0zm.7.7h-.1v.1c0-.1 0-.1.1-.1zM23.5 6.1c.1 0 .1 0 0 0 .1 0 .2 0 .2.1h.1s0-.1.1-.1L24 6h.1c.1 0 .1 0 .1.1v.2c0 .1.1.1.1.2h.2c0-.1 0-.1.1-.2l-.1.1c-.1 0-.1 0-.1-.1v-.2c0-.1 0-.1.1-.2v-.4h.1l.1.1.1.1v.1H25.1l.1.1c.1 0 .1.1 0 .2v1.6c0 .2.1.2 0 .4v.5c0 .1 0 .2-.1.2V11.4c-.1-.3-.1-.3-.1-.2V11.5h-.1v.1c0 .1 0 .1-.1.1h-.1v.7s0 .1-.1.1h-.1l-.1.1v.1l-.1.1H23.6c-.1 0-.1-.1-.1-.2v-3c0-.2 0-.5-.1-.7V7.3c0-.1-.1-.3-.1-.4 0-.1-.1-.3-.1-.4v-.1c0-.1 0-.1-.1-.2v-.1c0-.1-.1-.2-.1-.2 0-.1 0-.1-.1-.2l-.1-.1v-.2l-.1-.1-.1-.1s0-.1-.1-.1h-.1s-.1 0-.1-.1c-.2 0-.2 0-.3-.1v-.1c0-.1-.1-.1-.1-.1H21.6c-.1 0-.2-.1-.2-.1h-.1c-.1 0-.2-.1-.2-.1v-.1h.2v-.1l-.1-.1H21v-.1c-.1-.1-.2-.1-.2 0 0 0-.1 0-.1.1h-.1v-.1h.1c.1 0 .1-.1.1-.1v-.1h.4v-.2h-.3c-.1 0-.1 0-.1.1v.1H20.5c-.1 0-.1.1-.2.1l-.1.1v.2h-.1v.2h.4v-.1l.1-.1v.1s0 .1-.1.1v.1h.1l-.1.1h-.1c-.1 0-.1.1-.2.1H20s0 .1-.1.1l-.1.1c.1-.1.1 0 0 0 0 .1-.1.1-.1.2 0 0-.1.1-.1.2v.2s-.1.1-.2.1h-.1s-.1.1 0 .1h.2s.1 0 .1.1V12.3c0 .1-.1.1-.1.1V12.7c0 .1.1.3.1.4V14.5c0 .1 0 .1-.1.2v.2c.1.1.2.1.3.1h.5c.1 0 .2-.1.2-.2 0 0 0-.1.1-.1l.1-.1c0-.1.1-.3.1-.5V13c0-.1.1-.1.2-.2H22.4c.1.1.1.1.1.3v.1c0 .1 0 .2-.1.2V19.1c0 .1 0 .3-.1.4l-.1.1s-.1 0-.1.1c-.2 0-.3 0-.5.1H20.7c-.1-.1-.1-.2-.1-.3v-1.3c0-.1-.1-.3-.1-.4 0-.1 0-.2-.1-.2 0-.1-.1-.1-.2-.2-.1 0-.1-.1-.2-.1h-.1c-.1 0-.1 0-.1-.1 0 0 0-.1-.1-.1h-.1s0 .1-.1.1h-.1c-.1.1-.1.2-.2.3v9.3c0 .1.1.3.1.4 0 .1.1.3.2.4 0 .1.1.1.1.2l.2.2c.1.1.2.1.3.2h.1c.1 0 .3 0 .4.1h.2c.1 0 .2 0 .3-.1l.2-.2c0-.1.1-.1.1-.1s.1 0 .1-.1l.1-.1s.1 0 .1-.1c.1 0 .1-.1.2-.1l.1-.1s0-.1.1-.1l.2-.2V27c.1-.1.1-.2.2-.4 0-.1.1-.2.1-.3.1-.2.1-.3.1-.5V19.8c0-.1 0-.1.1-.1h.1c.2 0 .4-.1.6-.1h.8s.1 0 .1.1l.1.1V30c0 .1-.1.1-.1.1h-1.3c-.1 0-.2-.1-.3-.1h-.7v.1l-.1.1H21.3c-.2 0-.3 0-.5-.1H19.7c-.2 0-.3.1-.5.1h-4.1s-.1 0-.1-.1 0-.1-.1-.2v-1.6s0-.1.1-.1h.4c.1-.1.3-.2.4-.3.2-.2.3-.4.4-.6 0-.1.1-.3.1-.4V8.6c0-.1 0-.1.1-.2V4.6h-.1s-.1 0-.1-.1v-.2c0 .7-.1.7-.1.6 0 0-.1 0-.1-.1h-.1c-.2 0-.3-.1-.5-.1h-.1c-.1 0-.1-.1-.1-.1-.2-.3-.2-.3-.2-.4V2.4h.1s.1 0 .1.1 0 .1.1.2c0 .1.1.1.1.2h.5c.1 0 .2 0 .2-.1h.1v.1h.4V3l.1.1h.2V2.8h.1l.1.1h.2l.1.1H17.7V3.3v-.1s.1-.1.2-.1c0 .1 0 .1.1.2v.2h-.1l-.1-.1H17.5v.1H17.8v.1h.1l.1-.1H18.3s.1 0 .1.1h.1s.1 0 .1.1H18.9v-.1s0-.1.1-.1h.1s.1 0 .1-.1v-.1H18.9l-.1-.1v-.1h.1s.1 0 .1-.1v-.5h.1l.1.1v.2h.1c.1 0 .1 0 .1-.1 0 0 0-.1.1-.1 0 0 0-.1.1-.1 0 0 .1-.1.1 0V3H20v-.1c0-.1.1-.1.1-.1v-.2L20 3s0-.1-.1-.1h-.2v-.1h.1c.1 0 .1.1.2.1l.1-.1h.2l.1.1h-.2v.2l.1.1h.2V3h.1s.1 0 .1.1v.1s.1 0 .1-.1L21 3h.2s.1 0 .1.1V3.4l.1.1v.1H21.7c.1 0 .2 0 .3.1v.1h-.1c-.1 0-.1.1-.2.1h-.4V4h.1s.1 0 .1-.1h.2l.3.1h.1c.1 0 .1 0 .2.1h.1c.1 0 .1 0 .1.1 0 0 .1 0 .1.1h.1V4c0-.1 0-.1.1-.1 0 0 .1 0 .1-.1.1-.1.1-.1.2-.1v-.1H23V3.3H22.7s-.1 0-.1.1v.1c.1 0 .1 0 .2.1v.2H22.5s-.1 0-.1-.1v-.2c.1-.1.1-.1.1-.2.1 0 .1-.1.1-.1v-.1h-.1l-.1.1c-.1 0-.1.1-.1.1v.1s0 .1-.1.1h-.5l-.1-.1v-.1h.4V3c0-.1-.1-.1-.2-.1h-.7L21 3v-.1h-.2l-.1.1v.1h-.2V3l.1-.1v-.1s.1-.1.1 0h.1l.1.1h.8c.1 0 .2.1.2.2 0 0 0 .1.1.1h.1c0-.1.1-.1.1-.1V3l-.1-.1h.1l.1.1c.1 0 .1 0 .1.1h.1l.1.1h.1v.1s0 .1-.1.1v.1l.1.1.1.1c0 .1.1.1.1.2h.2c.1 0 .1.1.1.2H23c-.1 0-.1 0-.2.1V4.5s0 .1-.1.1l-.1.1c0 .1 0 .1.1.2l.1.1.1.1.1.1h.5v-.1s0-.1.1-.1h.1s.1.1.1.2v.1h-.2c-.1 0-.1.1-.1.1 0 .1 0 .1-.1.2h-.2c0 .1-.1.1-.1.1v.1l.1.1c.1 0 .1.1.2.1h.2v-.2c.1 0 .2-.1.3-.1h.1v-.2s0-.1-.1-.1v-.1h.1v.1c0 .1.1.2.1.3.1 0 .1 0 .1.1v.1H23.9h.1s-.1 0-.1.1l-.1.1H23.5c.1-.1.1-.1 0 0 .1 0 0 0 0 0 0 .1 0 .1 0 0 0 .1 0 .1 0 0 0 .1 0 .1 0 0zm-5.3-1.7s0 .1-.1.1H18l-.1-.1h-.5v.1s0 .1.1.1H17.8c.1 0 .1 0 .1.1v.1c0 .1-.1.1-.1.2v.1l-.1.1h-.1l-.1.1H17.2V5.6H17v.1s0 .1.1.1V6h.2l.1-.1h.1l.1.1h.2v-.1h.2V6s-.1 0-.1.1c0 0 0 .1-.1.1v.1s0 .1.1.1v-.1s0-.1.1-.1H18.3s.1 0 .1.1h.3c.1 0 .1-.1.1-.1v-.1c0-.1 0-.1-.1-.1H18.4l-.1-.1h-.1c0 .1-.1.1-.1.1H18s-.1-.1 0-.1l.1-.1v-.1H18l-.1-.1H17.6c-.1-.1-.1-.1-.2-.1h-.1v-.1l-.1-.1v-.1s0-.1.1-.1V5h.1l.1.1v.1l.1.1h.1l.1-.1v-.1c0-.1 0-.1-.1-.2v-.2c0-.1.1-.1.2-.1v.2h.1V5h.2v.1s0 .1-.1.1H17.8l-.1.1s0 .1.1.1h.2l.1.1h.2v-.1H18.6c.1 0 .1-.1.2-.2V5s0-.1.1-.1h.2s.1 0 .1-.1V4.5h.1s.1 0 .1-.1V4h-.2c-.1-.1-.2-.1-.2-.2h-.1c-.1 0-.1-.1-.1-.1v.4s0 .1.1.1l.1.1v.2h-.1l-.1-.1V4.7l.2.3h-.1s0-.1.1-.1v-.1H18.7v-.1h.1v-.1s-.1 0-.1-.1h-.1l-.1-.1H18.2zm-1.2.8v.1l-.1.1h-.1v.1l.1.1h.1c.1 0 .1-.1.2-.1l.1-.1c0-.1 0-.1.1-.2v-.1h-.1c-.1-.1-.1-.1-.1-.2 0 0 0-.1-.1-.1h-.2s-.1 0-.1-.1h-.1V5c-.2 0-.2 0-.1.1h.1l.1.1h.2c-.1 0-.1 0 0 0zm1.6 6.5v-.2H18.9s.1 0 .1-.1v-.1l-.1-.1v-.1l.1-.1v-.1H18.7c-.1 0-.2.1-.2.1s0 .1-.1.1c0 0 .1 0 .1.1v.2l-.2.2c-.1 0-.1.1-.1.1h.4c-.1.1 0 0 0 0zm-1.7 17.6c-.1 0-.1.1 0 0-.1.1-.1.2-.1.2l-.1.1h-.1v.4c0 .1.1.1.1.1h.1c.1 0 .1 0 .1.1v.1h.1c.1 0 .1-.1.1-.1V30H17c-.1 0-.1-.1-.2-.1v-.1l.1-.1h.1v-.1c0-.2-.1-.3-.1-.3zM24.6 11h-.3v.1s0 .1-.1.1v.1h-.1v-.2c0-.1 0-.1-.1-.1h-.1v.5s0 .1.1.1h.1l.1-.1h.2l.1-.1v-.2c.1-.1.1-.1.1-.2 0 .1 0 0 0 0zm-.1-.5c.1 0 .1 0 0 0 .1 0 .1-.1.1-.1h-.1c-.1 0-.1 0-.1-.1l-.1-.1h-.2s-.1 0-.1.1v.2l.1.1H24.4c0-.1.1-.1.1-.1zm-7.2-3.8c.1 0 .1 0 0 0 .1 0 .1 0 .1-.1h.4l.1-.1v-.1l-.1-.1-.1-.1h-.2l-.1.1v.1l-.1.3zm-.8-3.1c.1-.1.2-.1.2-.1V3.2h.2v-.1H16.6s-.1.1-.2.1-.1 0-.1.1.1.2.2.3c-.1 0-.1 0 0 0zm1.5 8.6v.1h.1v-.1s0-.1-.1-.1V11.8h-.1s-.1 0-.1-.1c0 0 0-.1-.1-.1h-.1v.1s0 .1-.1.1v.1h.1c.2.1.2.2.4.3-.1-.1 0-.1 0 0zm4.9 17c0-.1-.1-.1-.1-.1l-.1.1h-.1l-.1-.1s0 .1-.1.2v.1c.1.1.1.1.2.1h.2c.1-.2.1-.2.1-.3zm-4-16.9s0-.1 0 0c-.1-.1-.1-.2-.1-.2h-.1V12.4s.1 0 .1.1v.1h.1c-.1-.2 0-.3 0-.3zm-3-9.2c-.1 0-.1.1 0 .1v.2H16.2V3c0-.1 0-.1-.1-.2-.1.4-.1.3-.2.3zm2.6 12s.1 0 0 0c.1 0 .1 0 0 0 .1 0 .1 0 0 0h.1c.1 0 .1 0 .2-.1 0 0-.1 0-.1-.1v-.2s0-.1-.1-.1h-.1s-.1.1 0 .1v.4zm3.6-10.8c-.1 0-.1.1-.1.1v.1s.1.1.1 0c.1 0 .1-.1.2-.1 0 0 .1 0 .1-.1v-.1c-.1 0-.2.1-.3.1zM24.4 8c-.1 0-.1 0 0 0-.1.1-.1.1-.2.1v.1s0 .1.1.1c0 .1.1.1.1.2h.1v-.1l-.1-.1V8c.1.1 0 0 0 0zm-7.1 5.5s-.1 0-.1.1v.1l.2.2c.1 0 .1.1.2.1v-.1h-.1c-.1 0-.1 0-.1-.1 0-.2 0-.2-.1-.3 0 .1 0 0 0 0zm1.2-.4c-.1 0-.2.1-.3.1H17.9v.1h.6s0 .1.1.1h.1c0-.1 0-.1-.1-.2h-.1c.1-.1.1-.1 0-.1zm-.6 5s-.1 0 0 0c-.1 0-.2-.1-.2-.1s0-.1-.1-.1l-.1-.1h-.1v.2l.1.1c.1 0 .1 0 .2.1.1 0 .1 0 .1.1h.1v-.1c.1-.1 0-.1 0-.1zm6.5-9.4H24.1s-.1 0 0 .1h.5s.1 0 .1-.1v-.1c-.2.2-.3.2-.3.1zm-1.9 21.6c-.1 0-.1 0 0 0h-.1c0 .1 0 .1.1.2h.1l.1.1h.1V30.3c-.2-.1-.3-.1-.3 0zM17.3 7.2c-.1 0-.2.1-.2.1-.1 0-.2 0-.2.1v.1h.1v-.1l.1-.1c.3 0 .3-.1.2-.1zm-1 21.7v.1h.3v-.2l-.1-.1c.1.1 0 .1-.2.2.1-.1 0-.1 0 0zm1.5-14.2s-.1 0 0 0c-.1.1-.1.2-.1.2 0 .1 0 .1.1.1h.2c-.1-.1-.1-.2-.2-.3.1 0 0 0 0 0zm.3-3.8s0-.1 0 0c-.1-.1-.2-.1-.2-.1s-.1 0-.1.1c0 0-.1 0-.1.1 0 0-.1 0-.1.1h.1c.1 0 .2-.1.4-.2 0 .1 0 0 0 0zm5.8-4.3c.1 0 .1 0 .2.1h.1v-.1l-.1-.1c-.1 0-.1 0-.1-.1h-.1s-.1 0-.1.1v.1h.1c-.1 0-.1 0 0 0zM23.1 5s-.1 0 0 0c-.1 0-.2 0-.3.1v.1s.1 0 .1.1h.1v-.1c0-.1 0-.1.1-.2 0 .1 0 0 0 0zm1.8 3.2c0-.1-.1-.2-.1-.2h-.1v.2h.2c0 .1 0 0 0 0zm-7.6 20.7h-.1c-.1 0-.1 0-.2.1h-.1v.1h.4v-.2c.1.1.1 0 0 0zm6.8-4.8s0 .1 0 0v.2l.1.1h.1l.1-.1s0-.1-.1-.1c-.1-.1-.1-.1-.2-.1zm.5-14.1V9.7h-.1s-.1 0-.1.1V10.1c.1 0 .1 0 .2-.1 0 .1 0 0 0 0zm-6.5 19.2v.1s0 .1.1.1h.1c.1 0 .1-.1.1-.2v-.1c-.1 0-.2 0-.3.1 0-.1 0 0 0 0zm-.3-20c0-.1 0-.1 0 0h-.2v.1l.1.1h.2c0-.1 0-.1-.1-.2.1 0 .1 0 0 0zm2.1 20.7-.1.1h-.1v.1l.1.1s.1 0 .1-.1l.1-.1h.1v-.1H20c0-.1 0-.1-.1 0zM17 24.5v.2s.1 0 .1-.1v-.4c0 .2-.1.2-.1.3zm5.7 4.2v-.1h-.1s-.1 0-.1.1V29h.1v-.1c.1-.1.1-.1.1-.2zm-4-15.8s.1 0 0 0c.1 0 .1 0 0 0h.1v-.1s0-.1-.1-.1l-.1-.1v.1c0 .1 0 .1.1.2 0-.1 0 0 0 0zm-1.1-8v-.1H17.3c-.1 0-.1 0-.1.1V5c.2 0 .3.1.4-.1 0 .1 0 .1 0 0zm.3 12.6h.1l.1-.1v-.1H18c0 .1-.1.1-.1.1-.1 0-.1 0 0 .1zm6.7-8.4c-.1 0-.1 0-.1.1s0 .2.1.3h.1v-.1c0-.1 0-.2-.1-.3.1.1 0 0 0 0zm-.3-1.8s-.1 0 0 0h-.1l-.1.1v.2h.1s.1 0 .1-.1c0 0 0-.1.1-.1-.1 0 0 0-.1-.1.1.1.1 0 .1 0h-.1c.1 0 .1 0 0 0zm-8.4 22.5c0-.1 0-.1.1-.2v-.2h-.1v.4c-.1 0-.1 0 0 0 0 .1 0 0 0 0zm.4.4c-.1-.1-.2-.1-.2 0v.2h.1c.1 0 .1-.1.1-.2zM17 4.4v.2h.1c0-.1.1-.1.1-.2v-.1c-.1.1-.1.1-.2.1zm6.9 16.3c-.1 0-.1 0 0 0-.1 0-.1 0-.2-.1 0 0-.1 0-.1.1v.1h.2c.1 0 .1 0 .1-.1 0 .1 0 0 0 0zm.6-14c-.1 0-.1 0 0 0-.1 0-.1 0 0 0h-.1c0 .1 0 .1.1.2h.1v-.1c-.1 0-.1 0-.1-.1zm-4.4 23.8s.1 0 0 0c.1 0 .1 0 .2-.1l.1-.1s-.1 0-.1.1h-.1c-.1 0-.1 0-.1.1-.1-.1-.1-.1 0 0-.1-.1 0-.1 0 0zm-1.5-14.7v.2h.1v-.1c0-.2 0-.2-.1-.1zm5.3-5.8v.1h.1l.1-.1s-.1-.1-.1 0c0-.1 0-.1-.1 0 .1-.1.1 0 0 0zM19 9.2s-.1 0 0 0c-.1 0-.2 0-.2.1 0 0 0 .1.1.1h.2v-.1l-.1-.1zm-.6 11.7c.1 0 .1-.1.1-.1v-.1h-.2s-.1.1 0 .1c-.1 0 0 0 .1.1-.1 0 0 0 0 0zm.1 1.9c0-.1-.1-.1-.1-.2h-.1v.2c0 .1 0 .1.2 0-.1.1-.1.1 0 0-.1.1 0 .1 0 0zm3-18.4s0 .1 0 0c.2.1.2.1.3.1v-.1h-.1c-.1-.1-.2-.1-.2 0zm-3 2.7c-.1-.1-.1-.1-.2-.1h-.1v.1c.1.1.2.1.3 0-.1 0-.1 0 0 0zm6.1 22.7s0 .1 0 0c-.1.1-.1.1-.1.2s.1.1.1.1h.1l-.1-.1v-.2zm-7.4-13v-.2h-.1l-.1.1v.1s0 .1.1.1c0-.1.1-.1.1-.1zm.1 8s0 .1 0 0c0 .1 0 .1 0 0-.1.1-.1.1-.1.2h.2s.1-.1 0-.1l-.1-.1zM15.2 3.3c.1 0 .1 0 0 0 .1-.1.1-.2 0-.2l-.1.1.1.1zm6.6 26.3h-.1v.1c0 .1.1.1.1.1h.1c-.1-.1-.1-.1-.1-.2 0 .1 0 .1 0 0zm-3.6-11.7c0 .1 0 .1.1.1h.1v-.1s-.1-.1-.2 0c.1 0 0 0 0 0zM17 5.9s0-.1 0 0c-.1-.1-.2-.1-.2-.1 0 .1.1.1.1.1 0 .1 0 .1.1 0-.1.1-.1.1 0 0zm-.1 9.9h-.2v.1l.1.1h.1c.1-.1.1-.1 0-.2.1.1 0 0 0 0zm.8 14.3v-.2h-.1v.2s.1.1.1 0zm-.5-6.3s0-.1-.1-.1H17v.1s0 .1.2 0c-.1.1-.1.1 0 0zm0-14.4c-.1.1-.1.2-.1.2h.1c.1-.1.1-.1 0-.2.1 0 .1 0 0 0zM18 17s0-.1 0 0c0-.1 0-.1 0 0 .1-.1 0-.1 0-.1-.1 0-.1.1-.2.1v.1s.1 0 .1-.1h.1zm0-12.8v.1h.2v-.1s0-.1-.1-.1l-.1.1c0-.1 0 0 0 0zm3.6 13h.1v-.1h-.1c-.1 0-.1 0 0 .1zm3.1-9.4c.1 0 .1 0 0 0l.1-.1-.1-.1h-.1c0 .2 0 .2.1.2zm-.6 1.6c-.1 0-.1.1 0 0v.2c.1 0 .1 0 .1-.1l-.1-.1c0 .1 0 0 0 0zm.3 17.4c0 .1 0 .1 0 0l.1.1s.1-.1 0-.1h-.1zm.2-.5c.1 0 .1 0 0 0 .1-.1.1-.1.1-.2-.1 0-.1 0-.1.1-.1 0-.1 0 0 .1zm-.2-18.6h-.1l-.1.1v.1h.1c0-.1 0-.1.1-.2zM18 7.6c0-.1-.1-.1-.1 0v.1c0 .1.1 0 .1-.1 0 .1 0 0 0 0zM21.5 18h.1c0-.1 0-.1-.1-.1h-.1c.1 0 .1 0 .1.1 0-.1 0-.1 0 0zM17 3.5h-.1v.1h.1v-.1c.1.1.1.1 0 0zm5.3 1.2v.2h.1c0-.1 0-.1-.1-.2zm-2.1 12.6c-.1 0-.1.1-.1.1h.1c.1-.1.1-.1 0-.1zm-3.3 4.3c-.1 0-.1.1-.1.1h.1c.1 0 .1 0 0-.1.1 0 0 0 0 0zm5.4 8.2s-.1.1 0 0v.1h.1l-.1-.1zm2.2-.8c.1 0 .1 0 0 0 .1-.1 0-.1 0-.1h-.1c0 .1.1.1.1.1zM19.1 7.9c-.1 0-.1 0 0 0-.1.1-.1.1-.1.2h.1v-.2zm.2-4.4v-.2s-.1 0-.1.1c0 0 0 .1.1.1-.1 0-.1 0 0 0zm-2 4.4v-.1h-.1v.1s0 .1.1 0c-.1 0 0 0 0 0zM17 6.4c-.1 0-.1 0 0 0v.2h.1c0-.1 0-.2-.1-.2zm.5 23.1s-.1 0 0 0h-.1v.1c0 .1 0 0 .1-.1 0 .1 0 .1 0 0zm.6-10.6c-.1 0-.1.1-.1.1s0 .1.1 0c.1 0 .1-.1 0-.1.1 0 .1 0 0 0zm4.6 9.1c-.1 0-.1 0 0 0-.1 0-.1 0 0 0h-.1s-.1.1 0 .1h.1c-.1 0 0-.1 0-.1zm-4.3-15.1s0-.1 0 0c-.1-.1-.1-.1-.1 0v.1c0-.1 0-.1.1-.1zm3.9 6.4v-.1c-.1 0-.1 0 0 .1-.1-.1-.1 0 0 0-.1 0-.1 0 0 0zm-3.4-2.5h.1v-.1s0-.1-.1 0v.1c-.1-.1-.1 0 0 0zm-1.6 6.6h.1s.1 0 .1-.1c-.1 0-.2 0-.2.1 0-.1 0 0 0 0zm1.6-.2s-.1.1 0 0l-.1.1h.1v-.1c0 .1 0 .1 0 0zM20 3.5s0 .1 0 0c.1.1.1.1 0 0h.1c0-.1 0-.1-.1 0 .1-.1.1-.1 0 0 0-.1 0-.1 0 0zm2.7 2c.1 0 .1 0 .1-.1 0 0 0-.1-.1 0v.1zm1.4 21.4s0 .1 0 0c.1.1.1 0 .1 0s0-.1-.1 0c0-.1 0-.1 0 0zm-2.4-11c-.1-.1-.1-.1-.1 0s.1.1.1 0zm-3.3-2.2c.1 0 .1 0 0 0l.1-.1c-.1 0-.1 0-.1.1 0-.1 0 0 0 0zm1.1 15.6c0-.1 0-.1 0 0h-.1c0 .1 0 .1.1 0zM21.1 18c0-.1-.1-.1 0 0-.1-.1-.1-.1 0 0-.1 0-.1 0 0 0zM19 4.3c-.1 0-.1 0 0 0-.1 0-.1 0 0 0l-.1.1c.1 0 .1-.1.1-.1zm4.9 3.8c.1 0 .1 0 0 0 .1 0 0-.1 0 0 0 0-.1 0 0 0 0 .1 0 .1 0 0 0 .1 0 .1 0 0zM19.1 16c.1-.1 0-.1 0-.1-.1 0-.1 0 0 .1-.1 0-.1 0 0 0zm5.5 13.2v.1s.1 0 0-.1c.1 0 .1 0 0 0zM21.1 16s0-.1 0 0c0-.1-.1-.1 0 0-.1-.1-.1-.1-.1 0h.1c-.1 0 0 0 0 0zm-3.7 3.4s0-.1 0 0c0-.1 0-.1 0 0-.1-.1-.1-.1-.1 0h.1zm7.1 5.4v-.1c-.1.1-.1.1 0 .1-.1 0-.1 0 0 0zM15.4 30c0-.1-.1-.1 0 0-.1-.1-.1 0 0 0-.1 0-.1 0 0 0zM23 4.1s-.1 0 0 0c-.1 0-.1 0 0 0 0 .1 0 .1 0 0zm-5.5 3.6c.1 0 0 0 0 0 0 .1 0 .1 0 0 0 .1 0 .1 0 0zm-.3 14c.1 0 .1 0 0 0 .1 0 .1-.1 0 0 .1-.1.1-.1 0 0 0-.1 0-.1 0 0zm1.4-12.5s.1 0 0 0c.1-.1.1-.1 0 0 0-.1 0-.1 0 0 0-.1 0-.1 0 0zm5.6-2.1zm-6.7 13.6c0-.1 0-.1 0 0 0-.1 0-.1 0 0zm6.2 6c0 .1 0 .1 0 0 0 .1 0 .1 0 0 0 .1 0 0 0 0zM18.9 30zm-1.8-12zM62.6 5.3c-.1-.1-.1-.1-.2-.1-.1-.1-.3-.2-.5-.2H61.6l-.1-.1V2.7l.1-.1h.1c.2 0 .4-.1.6 0h4.3c.1 0 .1.1.2.1 0 .1.1.1.1.2v1.7c0 .1-.1.1-.1.1H66.5c-.1 0-.2 0-.3.1-.1 0-.1.1-.2.1-.1.1-.1.1-.2.1h-.1l-.1.1c-.1.1-.1.2-.2.3-.1.1-.1.3-.2.4 0 .2-.1.3-.1.5 0 .1 0 .2-.1.3 0 .2-.1.3-.1.5-.1.3-.1.6-.2.9 0 .2-.1.5-.2.7 0 .2-.1.3-.1.5V9.5c0 .1 0 .2-.1.4v.1c-.1.2-.1.3-.1.5s-.1.3-.1.5c-.1.2-.1.5-.2.7v.9c0 .2-.1.3-.1.5 0 .1 0 .1-.1.1v.1c0 .1 0 .3-.1.4-.1.3-.1.5-.2.8 0 .2-.1.4-.1.6-.1.5-.2 1.1-.3 1.6 0 .1-.1.2-.1.4 0 .1-.1.2-.1.3 0 0 0 .1-.1.1v.1c0 .1 0 .3-.1.4 0 .1-.1.2-.1.3 0 .1-.1.3-.1.4V28.5c0 .1.1.2.2.3l.2.2c.2.2.4.3.7.3H63.8c.1 0 .2 0 .2.1 0 0 0 .1.1.1v1.1c0 .1 0 .3.1.4v.2l-.1.1h-4c-.2.1-.1.1-.3 0H58s-.1 0-.1-.1V29.4c0-.1.1-.1.1-.2.1 0 .1-.1.2-.1h.2c.1 0 .3-.1.4-.1.1 0 .1-.1.2-.1l.1-.1.3-.6V28c0-.2.1-.3.1-.5V19.7c0-.1-.1-.2-.1-.4v-.5c0-.1 0-.3-.1-.4v-.7c0-.2 0-.3-.1-.5s-.1-.5-.2-.7c0-.1 0-.2-.1-.3 0-.1 0-.1-.1-.2v-.2c0-.1 0-.1-.1-.2 0-.1 0-.3-.1-.4 0-.1-.1-.2-.1-.3v-.2c0-.2-.1-.4-.1-.5-.1-.4-.2-.7-.3-1.1 0-.1 0-.2-.1-.2v-.4c0-.1 0-.1-.1-.2 0-.1 0-.2-.1-.2 0-.1 0-.2-.1-.3 0-.1-.1-.2-.1-.3-.1-.3-.1-.6-.2-.9-.1-.3-.1-.6-.2-.9-.1-.3-.2-.7-.3-1-.1-.3-.2-.7-.2-1 0-.1 0-.1-.1-.2v-.1c0-.1-.1-.2-.1-.3 0-.1 0-.1-.1-.2-.4-.6-.4-.7-.4-.8 0-.1 0-.1-.1-.2V5.6s0-.1-.1-.1c0-.1-.1-.1-.1-.2l-.1-.1h-.1c-.2-.1-.3-.1-.5-.2h-.2c-.1 0-.2-.1-.3-.1l-.1-.1v-2c0-.1 0-.1.1-.2 0 0 0-.1.1-.1H60.7c.1 0 .1 0 .1.1s.1.2.1.2v1.7c0 .1 0 .2-.1.3-.1.1-.2.1-.3.2H60c-.1 0-.1.1-.1.1l-.2.2-.1.1c0 .1-.1.2-.1.3V6.3c0 .2 0 .3.1.5v.1c0 .1.1.3.1.4v.1s0 .1.1.1v.1c0 .2.1.3.1.5 0 .1 0 .1.1.2 0 .2 0 .5.1.8.1.7.1.6.3 1.2 0 .1 0 .2.1.3v.5c.1.3.2.6.2.9.1.3.1.5.2.8 0 .1 0 .1.1.2 0 .1.1.3.1.4v.1c0 .1.1.2.1.3h.2V13.5c0-.2 0-.3.1-.5v-.1c.1-.1.1-.1.1-.2V12.4c.1-.3.1-.4.2-.7 0-.1.1-.3.1-.4v-.4c0-.2 0-.3.1-.5 0-.2.1-.3.1-.5 0-.1 0-.2.1-.3 0-.1 0-.2.1-.4 0-.2.1-.5.1-.7 0-.2.1-.4.1-.6v-.5c0-.2.1-.5.1-.7V5.8c0-.1 0-.2-.1-.3 0-.1 0-.1-.1-.2v-.1c.3.1.2.1.2.1zm-3.4 10.5c.1 0 .1 0 0 0 .1 0 .1 0 .1-.1s0-.1-.1-.2h-.1l-.1.1v.1c.1 0 .1.1.2.1zM56.5 3.3c-.1 0-.2 0-.2.1 0 0 .1.1.2.1 0 0 .1 0 .1-.1-.1 0-.1 0-.1-.1zm7.2 2.6c.1 0 .1-.1.1-.1v-.1h-.1v.1c-.1 0-.1.1 0 .1-.1 0-.1 0 0 0-.1 0-.1 0 0 0zm-4.5 8.5s0-.1-.1-.1H59v.1c.1.1.1.1.2 0 0 .1 0 .1 0 0 0 .1 0 0 0 0zM58.8 30c-.1 0-.1 0 0 0-.1.1-.1.1-.1.2 0 0 .1.1.1 0v-.1c.1-.1 0-.1 0-.1zm-.7-26.8v.1l.1.1s.1 0 .1-.1v-.1h-.2zm1.2 26.5s0-.1 0 0c-.1-.1-.1-.1-.2 0l-.1.1v.1c.2-.1.2-.1.3-.2 0 .1 0 0 0 0zm-1.6-25c.1 0 .1 0 0 0h.1v-.2h-.1v.2zm1.6 25.4c-.1 0-.1 0 0 0-.1 0-.1 0-.1.1h.1c-.1 0-.1 0 0-.1zm3.8-26.4c-.1 0-.1.1 0 0 0 .1 0 .1 0 0 0 .1 0 .1 0 0z"/><path d="M46.7 29.1v.4c0 .2 0 .3.1.5v.6s0 .1-.1.1l-.1.1c-.1 0-.1 0-.2.1H43c-.1 0-.2 0-.4.1H40.9l-.1-.1V29.2c0-.1.1-.2.2-.2s.2-.1.3-.1c.1 0 .2-.1.3-.1h.1l.1-.1h.1l.1-.1c0-.1.1-.3.1-.4v-.1s0-.1.1-.1V26.1h.1s.1 0 .1.1v.1c0 .1.1.2.1.2s.1 0 .1.1c0 0 .1 0 .1.1s0 .1.1.2c0 .1 0 .2-.1.2h-.2v.1s-.1 0-.1.1v.6l-.1.1s-.1.1 0 .1V28.4l.1.1.1.1v.1s0 .1-.1.1c0 .1 0 .1-.1.1h-.1v-.1h-.1s-.1 0-.1.1l-.1.1v.2c0 .1 0 .1-.1.1v.1s.1 0 .1.1l.1.1c0 .1.1.2.1.2v.1H41.8l-.1.1h-.2v-.1h-.1v.1H41.1v.1H41.9v.2l-.1.1V31c0 .1 0 .1.1.1V31s0-.1.1-.1h.1s0 .1.1.1c0 0 0 .1.1.1 0 0 0-.1.1-.1v-.2c.1 0 .1-.1.2-.1h.1s.1 0 .1.1v.1h-.1l-.1.1v.1h.1s.1 0 .1.1h.1l.1-.1V31H43.3l.1-.1v-.2h-.1c-.1 0-.1-.1-.2-.1v-.2s0-.1-.1-.1c0 0 0 .1-.1.1v-.1c0-.1.1-.2.1-.3h.4c0-.1.1-.1.1-.1h.1v.4h-.1c-.1 0-.1.1-.1.1v.1H45l.1-.1H45.4v-.1H45c-.1 0-.1-.1-.2-.1h-.4V29.9h-.2v-.2l-.1-.1H44c-.1 0-.1-.1-.1-.1v-.1h.1l.1.1s0 .1.1.1l.1.1h.4c.1 0 .1-.1.2-.1 0 0 .1 0 .1-.1v-.2s-.1 0-.1-.1v-.1s0-.1.1-.1h.1v.1c0 .1 0 .1.1.1 0 0 0 .1.1.1s.1.1.2.1l.1.1c.1 0 .1.1.2.1h.2c.1 0 .1.1.2.1h.4c0-.7.1-.7.1-.6zm-1.3.7s.1 0 0 0c.1-.1.1-.2.1-.2v-.1h-.1s-.1 0-.1.1c0 0 0 .1.1.2-.1 0-.1 0 0 0zm-3.6 0v.2h.1s.1-.1.1-.2h-.2c.1 0 .1 0 0 0zm2.2-.2c-.1 0-.1.1-.2.1v.1h.2s.1-.1 0-.2c.1.1 0 0 0 0zm1.3.9s0-.1 0 0h-.1v.1h.1v-.1c.1 0 .1 0 0 0zm-3.9-.6v-.1h-.1v.1h.1zm3.4.5h.1c0-.1 0-.1-.1 0 0-.1 0-.1 0 0 0-.1 0-.1 0 0zm-.6-.6s0-.1 0 0h-.1c0 .1.1.1.1 0 0 .1 0 .1 0 0zm-.7.8s0-.1 0 0c0-.1 0-.1 0 0 0-.2 0-.2 0 0-.1-.1-.1-.1 0 0-.1-.1-.1-.1 0 0-.1 0 0 0 0 0zm2.2-1.8c-.1 0-.1 0 0 0-.1 0-.1.1 0 0 0 .1 0 .1 0 0 0 .1 0 0 0 0zm-.9 1.1s.1 0 0 0c.1-.1.1-.1 0 0 0-.1 0-.1 0 0 0-.1 0 0 0 0zm-.5.8zm.8-1.1zM44.8 27.3c-.1 0-.1 0 0 0h-.2l-.1-.1c0-.1.1-.1.1-.1h.1s.1 0 .1-.1v-.2s0-.1.1-.1h.1v-.2c0-.1-.1-.1-.1-.1v-.1c0-.1-.1-.1-.1-.1s-.1 0-.1.1c0 0 0 .1-.1.1h-.1v-.1s0-.1.1-.1h.1l.1-.1h.4s.1 0 .1-.1h.1c0 .1 0 .1.1.2v1.5h-.1c-.1 0-.1-.1-.1-.1v-.1s0-.1.1-.1v-.1h-.6zM31.1 2.5h-.6V2.8h-.1v-.4l.1-.1h1.9c.1 0 .1 0 .2-.1h.1c.2 0 .2 0 .3.1.1 0 .1 0 .1.1l.1.1v.4s-.1-.1-.1-.2v-.2c0-.1-.1-.1-.1-.1h-1.6c-.1 0-.1 0-.2-.1.1.2 0 .2-.1.2.1 0 .1 0 0 0zM43.6 26.1h-.2s-.1 0-.1.1l.1.1.1.1.1.1h-.4s0-.1-.1-.1c0 0-.1-.1-.1-.2s0-.1-.1-.2c0 0 0-.1.1-.1h.1v.1s0 .1.1.1h.1V26s0-.1.1-.1c0 0 .1-.1.1 0s.1.1.1.1v.1z"/><path d="M43.8 28c-.1 0-.1 0 0 0-.1 0-.1-.1-.1-.1 0-.1 0-.1-.1-.2v-.4s0-.1-.1-.1v-.1h.1c.1.1.1.1.2.1h.2V27.5s0 .1.1.1v.2c-.2.2-.3.2-.3.2zM42.5 29.9l-.1.1s-.1 0-.1-.1v-.2s0-.1.1-.1l.1-.1H42.8v.1s-.1 0-.1.1l-.2.2c.1 0 .1 0 0 0zM23.5 3.3s-.1 0 0 0l-.2-.2V3s0-.1.1-.1h.2s.1 0 .1.1V3.3h-.2zM44.2 26v-.2H44.5v.2h-.1l-.1.1s0 .1-.1.1c0 0 0 .1-.1.1H44v-.2c.2 0 .2-.1.2-.1zM24.6 4.6c-.1 0-.1 0 0 0-.1 0-.1 0 0 0h-.2v-.1c0-.1.1-.1.1-.2h.2l.1.1v.1c-.2 0-.2.1-.2.1zM25.1 5.2v.4H25c-.1 0-.1 0-.1-.1 0 0 0-.1.1-.1v-.1h-.1v-.1c0-.1.1-.1.2 0-.1-.1 0 0 0 0zM32.2 2.8c0 .1 0 .1 0 0l-.1.1c-.1.1-.1.1-.1.2 0 0 0 .1-.1.1h-.1c0-.1 0-.1-.1-.2 0-.1.1-.1.2-.1 0 0 .1 0 .1-.1h.2zM44.2 26.6h.3c0 .1 0 .1-.1.1H44.1s0-.1-.1-.1l-.1-.1c.3.2.3.1.3.1zM23 2.3h-.6.6c0-.1 0-.1 0 0 .1 0 0 0 0 0zM31.7 4.8s-.1 0 0 0h-.2v-.1s0-.1.1-.1h.3v.1c-.1 0-.2 0-.2.1zM18 3.3l.1-.1c.1 0 .1 0 .2-.1V3h.1v.1s0 .1-.1.1v.1s0 .1-.1.1c0 0-.1 0-.2-.1 0 .1 0 .1 0 0zM24.3 2.3s.1-.1 0 0c.2-.1.3-.1.3 0v.1c-.1 0-.2 0-.3-.1zM43.4 28.2s0 .1-.1.1h-.1s-.1-.1 0-.1l.1-.1c.1 0 .1 0 .1.1zM24.7 3.7c-.1 0-.1-.1 0 0-.1-.1-.1-.1-.2-.1v-.1h.2v.2c0-.1 0-.1 0 0 0-.1 0-.1 0 0zM43.1 27.5s-.1 0 0 0H43v-.1h.1s.1 0 .1.1c-.1-.1-.1-.1-.1 0zM31.2 4c0-.1.1-.1.1-.1h.1V4h-.1c-.1.1-.1.1-.1 0 0 .1 0 0 0 0zM16.9 2.1c.1 0 .1 0 0 0 .1.1 0 .1 0 .1h-.2v-.1h.2zM31.7 4.3h-.1v-.1h.2l-.1.1c.1-.1.1-.1 0 0zM18.1 3.1s-.1 0 0 0c-.1 0-.1-.1-.2-.1v-.1l.1-.1h.2c-.1.2 0 .2-.1.3.1-.1.1 0 0 0zM43 28c-.1.1-.1.1 0 0-.1.1-.1.1 0 0-.1 0-.1 0-.2-.1v-.1h.1c0 .1.1.2.1.2zM18.3 2.2s.1 0 0 0c.1 0 .1 0 0 0l.1.1H18.1v-.1h.2zM44.2 29c0 .1 0 .1-.1.1V29s0-.1.1-.1v.1zM25.1 2.4l.1.1v.1h-.1c-.1-.1-.1-.1 0-.2-.1 0-.1 0 0 0-.1 0-.1 0 0 0zM32.2 4.7c0-.1-.1-.1 0 0v-.2h.1v.1c-.1-.1-.1 0-.1.1 0-.1 0 0 0 0zM20.5 2.2h.1v.1h-.2c.1 0 .1 0 .1-.1zM23.6 4.2l.1.1v.1c-.2 0-.2-.1-.1-.2-.1 0-.1 0 0 0-.1 0 0 0 0 0zM31.2 3.7H31c.1-.1.1-.1.2 0 0-.1 0-.1 0 0zM25.1 4.4s0 .1 0 0v.1c-.1 0-.1 0-.1-.1h.1zM5.4 30.9c-.1.1-.1 0-.1 0v-.1l.1.1c0-.1 0 0 0 0zM32.7 3.1h-.1V3h.1v.1zM42.5 28.5c0 .1-.1.1-.1.1v-.1h.1c-.1 0-.1 0 0 0zM16.1 2.1s0 .1 0 0c0 .1 0 .1 0 0 0 .1-.1.1-.1.1-.1-.1 0-.1.1-.1-.1 0-.1 0 0 0zM24.1 5.2s.1 0 0 0c.1 0 .1 0 .1.1l-.1-.1c0 .1 0 0 0 0zM44.6 27.7h.1c0 .1 0 .1-.1 0 0 .2 0 .2 0 0-.1.1-.1.1 0 0-.1.1-.1.1 0 0zM16.5 2.2c-.1 0-.1 0 0 0-.1 0-.1 0 0 0-.1-.1-.1-.1 0-.1v.1zM25.1 3.7c-.1 0-.1 0 0 0-.1 0-.1-.1 0 0l-.1-.1.1.1c0-.1 0-.1 0 0zM33.5 4.4c0 .1 0 .1 0 0-.1.1-.1 0-.1 0h.1zM24.1 3.5v-.1c.1 0 .1 0 0 .1l.1-.1c0 .1 0 .1-.1.1.1 0 .1 0 0 0zM44.3 27.5s.1 0 0 0c.1.1.1.1 0 .1v-.1c0 .1 0 0 0 0zM25.1 3.1s0 .1 0 0c-.1.1-.1.1 0 0H25h.1c-.1 0-.1 0 0 0-.1 0 0 0 0 0z"/><path d="M43.8 27.1c.1 0 .1.1 0 0v.1-.1c-.1 0 0 0 0 0zM24.5 4.9s-.1.1 0 0c-.1.1-.1.1 0 0-.1.1-.1 0 0 0-.1 0-.1 0 0 0-.1 0 0 0 0 0zM24.6 5.2c-.1 0-.1-.1 0 0 0-.1 0-.1 0 0 0-.1 0-.1 0 0 0-.1 0-.1 0 0 0-.1 0 0 0 0zM32.7 4.4c0 .1 0 .1 0 0 0 .1 0 .1 0 0 0 .1 0 .1 0 0-.1 0 0 0 0 0zM44.4 16.7zM43.7 22.9s.1.1 0 0c.1.1.1.1.1.2v.2h-.1l-.1-.1V23c0 .1.1 0 .1-.1 0 .1 0 0 0 0zM43.9 23.6v.2c-.1 0-.1-.1-.2-.1v-.1h.1c0-.1 0-.1.1 0-.1 0 0 0 0 0zM44.5 23.6h-.2v-.1h.1c.1 0 .1 0 .1.1zM43.4 22.8c.1 0 .1 0 0 0 .1.1.1.1 0 0 0 .1 0 .1 0 0 0 .1 0 .1 0 0zM43.1 6.3c-.1 0-.1 0 0 0-.1.1-.1.1-.2.1V6.1h.1s.1.1.1.2c0-.1 0-.1 0 0 0-.1 0-.1 0 0zM43.9 5.1c0-.1-.1-.1 0 0-.1-.1-.1-.1 0-.1h.1l-.1.1c.1-.1 0 0 0 0zM17.5 5.7h.4v.1h-.1c-.2 0-.3 0-.3-.1zM19 5.2s.1 0 0 0v.1-.1c-.1.1 0 .1 0 0z"/></g></switch></svg>